<?xml version="1.0" standalone="no"?>
<!DOCTYPE svg PUBLIC "-//W3C//DTD SVG 20010904//EN"
 "http://www.w3.org/TR/2001/REC-SVG-20010904/DTD/svg10.dtd">
<svg version="1.0" xmlns="http://www.w3.org/2000/svg"
 width="893.000000pt" height="1036.000000pt" viewBox="0 0 893.000000 1036.000000"
 preserveAspectRatio="xMidYMid meet">
<metadata>
Created by potrace 1.15, written by Peter Selinger 2001-2017
</metadata>
<g transform="translate(0.000000,1036.000000) scale(0.100000,-0.100000)"
fill="#000000" stroke="none">
<path d="M240 9683 c1 -466 4 -673 11 -660 16 27 24 20 25 -23 1 -42 -4 -48
-24 -28 -9 9 -12 -4 -12 -59 0 -64 2 -71 22 -76 12 -4 27 -2 34 4 19 16 42 0
47 -34 8 -56 -5 -80 -54 -97 l-44 -15 4 -120 4 -120 13 65 13 65 -5 -60 c-4
-44 -2 -56 6 -45 7 11 9 -4 6 -55 l-5 -70 13 85 c6 47 17 96 22 108 9 22 11
22 24 7 11 -13 11 -18 1 -24 -10 -6 -9 -10 3 -14 9 -4 16 -16 16 -27 l0 -20
20 20 c23 23 26 50 8 68 -9 9 -9 15 0 24 14 14 16 490 3 570 -4 27 -5 50 -2
53 7 8 8 54 16 646 l6 509 -86 0 -85 0 0 -677z"/>
<path d="M628 9942 c-4 -230 -5 -562 -3 -738 1 -175 3 -436 4 -579 1 -219 4
-257 15 -242 7 9 18 17 24 17 5 0 13 7 16 16 8 22 8 25 -6 23 -7 -1 -20 -1
-28 0 -12 1 -12 4 3 12 9 5 17 17 17 24 0 8 4 15 9 15 5 0 8 -7 7 -16 -2 -23
22 -29 26 -7 3 16 5 16 26 -5 12 -12 23 -22 25 -22 1 0 3 32 5 70 2 40 -1 70
-6 70 -18 0 -23 49 -7 73 8 13 13 26 10 29 -3 3 -6 119 -6 257 l-1 251 -29 0
c-35 0 -79 39 -79 69 0 48 72 69 110 31 22 -22 27 -15 7 9 -9 10 -11 26 -6 46
3 17 7 22 8 13 0 -10 5 -18 10 -18 5 0 7 8 4 19 -3 11 3 24 15 32 18 13 19 21
12 89 -4 45 -3 80 3 87 5 7 6 25 2 40 -16 65 -16 76 0 70 20 -8 19 13 -2 28
-14 11 -15 15 -4 28 7 9 19 13 27 10 8 -3 14 1 14 8 1 28 55 80 92 88 25 6 39
5 42 -3 2 -6 5 -3 5 7 1 9 6 17 12 17 6 0 8 -8 5 -17 -3 -10 -1 -25 4 -33 7
-11 10 -11 10 -2 0 7 5 10 10 7 6 -4 -3 -22 -22 -45 -18 -21 -39 -59 -47 -84
-13 -44 -31 -62 -31 -31 0 8 6 15 13 15 6 0 1 6 -13 14 -21 11 -27 11 -37 -2
-9 -11 -13 -12 -13 -3 0 7 -4 9 -10 6 -13 -8 -13 -62 0 -70 6 -4 8 -10 6 -14
-3 -4 6 -20 20 -37 25 -29 25 -29 19 -4 l-6 25 15 -25 c8 -14 16 -57 17 -95 3
-75 17 -137 37 -157 9 -9 12 -9 12 0 0 7 -4 12 -10 12 -22 0 -8 25 15 26 39 3
55 12 55 33 0 12 9 21 26 25 71 18 138 126 129 208 -2 18 -1 25 1 16 6 -19 40
-24 62 -9 11 7 11 9 -2 14 -8 3 -18 2 -21 -3 -9 -15 -27 -12 -22 3 2 6 14 12
27 12 13 0 25 5 27 10 4 14 -49 15 -66 2 -12 -10 -13 -8 -9 11 4 12 3 20 -2
17 -4 -3 -7 6 -6 20 0 14 4 25 9 25 4 0 7 5 7 10 0 6 -7 10 -15 10 -19 0 -20
34 -2 49 19 15 20 71 1 71 -8 0 -14 5 -14 10 0 6 -8 10 -18 10 -10 0 -24 6
-30 12 -10 10 -15 10 -22 -2 -7 -10 -10 -11 -10 -2 0 6 -7 12 -15 12 -8 0 -15
5 -15 10 0 6 10 8 24 4 19 -4 25 -1 30 20 8 31 48 45 72 25 12 -10 14 -23 10
-50 -7 -42 4 -55 31 -40 10 5 26 12 36 15 11 4 17 16 17 35 0 16 6 32 13 34 9
4 9 8 -2 15 -14 10 -19 54 -22 192 -1 41 -3 67 -6 58 -7 -28 -27 -21 -40 12
-14 38 -29 38 -36 1 -4 -16 -16 -38 -28 -49 -11 -11 -18 -25 -15 -31 7 -11
-27 -34 -38 -26 -3 3 -4 2 -1 -2 3 -3 0 -12 -5 -18 -8 -9 -5 -15 7 -19 10 -4
19 -2 22 5 2 6 14 21 27 32 28 24 65 31 57 10 -3 -8 -11 -12 -18 -9 -8 3 -12
-2 -10 -12 1 -9 0 -11 -2 -4 -6 17 -23 15 -23 -3 0 -8 5 -24 12 -34 9 -15 9
-23 -2 -37 -14 -15 -15 -15 -20 7 -8 31 -55 37 -63 8 -6 -21 18 -39 43 -32 8
2 4 -3 -10 -11 -30 -18 -94 -20 -139 -5 -38 14 -41 28 -3 22 21 -4 24 -2 12 6
-13 9 -12 11 5 12 14 0 16 2 5 6 -8 3 -21 12 -27 21 -11 14 -13 13 -13 -9 0
-19 -2 -21 -10 -9 -8 13 -10 12 -10 -4 0 -31 -27 0 -35 40 -3 20 -9 43 -12 52
-4 15 -3 15 6 2 15 -20 15 4 0 31 -5 11 -13 39 -17 62 -6 30 -12 42 -25 42 -9
0 -17 5 -17 10 0 6 6 10 13 10 12 0 25 20 26 42 1 8 -36 12 -127 12 l-129 1
-5 -418z"/>
<path d="M1020 10345 c0 -8 5 -15 10 -15 6 0 10 -14 10 -30 0 -31 30 -56 38
-32 2 7 8 12 13 12 6 0 5 -10 -2 -22 -9 -17 -9 -23 0 -26 7 -2 17 -15 22 -29
12 -34 34 -23 33 16 -1 17 2 31 7 31 5 0 9 9 9 19 0 11 4 22 9 25 5 3 7 16 4
29 -4 20 -3 21 10 4 8 -10 31 -18 52 -20 34 -2 38 1 42 26 l4 27 -131 0 c-109
0 -130 -2 -130 -15z"/>
<path d="M1389 10338 c-1 -46 1 -249 7 -503 3 -143 5 -333 4 -422 -1 -90 3
-164 8 -167 5 -3 7 -45 4 -96 -4 -68 -2 -90 8 -90 9 0 10 10 6 35 -8 40 0 46
15 13 9 -21 9 -21 4 4 -5 28 9 48 18 25 7 -18 -3 -67 -14 -67 -4 0 1 -21 12
-46 12 -25 19 -48 16 -50 -2 -2 -17 2 -33 11 l-29 15 -3 -141 c-1 -77 2 -157
7 -177 6 -20 7 -38 2 -42 -5 -3 -10 -23 -12 -46 -2 -30 3 -48 19 -69 29 -36
31 -66 3 -41 -10 10 -21 14 -24 9 -3 -4 -5 -52 -5 -105 0 -92 1 -96 18 -86 10
7 16 16 14 20 -3 4 0 8 5 8 17 0 13 -22 -8 -44 -10 -12 -22 -32 -26 -46 -5
-19 -4 -21 4 -10 11 16 9 -56 -4 -117 -4 -21 -2 -33 4 -33 6 0 11 -13 11 -30
0 -16 5 -30 10 -30 6 0 10 -5 10 -11 0 -7 8 -18 18 -25 14 -11 20 -9 38 7 l21
20 -1 -28 c0 -17 4 -27 12 -25 13 2 15 -32 2 -63 -5 -13 -3 -26 7 -37 12 -13
14 -37 9 -125 -3 -59 -6 -125 -6 -145 0 -21 -4 -38 -9 -38 -5 0 -7 10 -4 23 3
16 2 18 -5 8 -8 -11 -12 -10 -21 5 -14 25 -14 11 1 -21 6 -14 15 -25 20 -25
17 0 6 -108 -21 -225 -6 -22 -15 -61 -20 -87 -24 -109 -162 -339 -257 -428
-143 -133 -303 -208 -524 -244 l-135 -22 65 -19 c43 -12 97 -19 158 -19 l93 0
-53 -45 c-149 -128 -254 -249 -343 -393 -20 -33 -21 -33 -125 -41 -98 -7 -202
-4 -312 10 l-48 6 0 -107 0 -106 26 -6 c15 -4 80 -4 146 0 86 5 118 4 113 -4
-4 -6 -14 -9 -22 -6 -8 3 -12 2 -9 -3 3 -5 -24 -34 -62 -64 -37 -31 -95 -82
-130 -115 -58 -56 -62 -62 -62 -103 l1 -44 15 27 c8 15 24 33 36 39 16 9 12 0
-15 -31 -36 -42 -37 -46 -37 -122 0 -43 2 -78 4 -78 2 0 19 24 38 53 62 93
155 202 214 251 31 25 58 45 60 44 1 -2 -8 -45 -21 -96 -13 -52 -27 -119 -31
-150 -7 -50 -9 -53 -14 -27 -4 17 -7 -49 -8 -145 -2 -157 -4 -178 -22 -200
-41 -53 -159 -227 -189 -281 -17 -31 -31 -69 -31 -85 l1 -29 14 34 c30 68 205
331 221 331 2 0 -25 -44 -60 -97 -34 -54 -88 -146 -119 -204 l-57 -107 1 -213
0 -214 26 55 c111 235 159 326 208 395 52 72 65 74 28 2 -25 -49 -101 -260
-127 -352 -51 -182 -91 -428 -79 -485 3 -17 27 -54 53 -82 l47 -51 6 154 c6
162 23 260 72 405 48 145 99 264 112 264 17 0 16 -25 -1 -108 -8 -37 -18 -85
-21 -106 -5 -31 -9 -36 -17 -25 -8 11 -9 10 -4 -4 3 -11 3 -24 -1 -30 -5 -7
-9 -41 -9 -77 -3 -139 -116 -502 -210 -675 -49 -91 -54 -97 -68 -86 -10 9 -13
-3 -14 -59 -1 -39 0 -70 3 -70 4 0 147 177 178 220 34 49 -88 -198 -149 -301
l-34 -57 0 -162 0 -163 23 24 c32 33 86 120 127 204 18 39 37 72 40 75 4 3 14
19 23 35 9 17 16 26 17 20 0 -22 -121 -255 -174 -333 -31 -46 -56 -93 -56
-105 l0 -20 23 21 c13 12 27 19 32 15 4 -5 5 -2 1 4 -9 16 17 56 29 45 5 -4 5
-2 2 5 -4 6 15 47 41 90 27 43 52 87 56 98 5 15 9 16 15 6 6 -9 29 -12 82 -10
65 4 74 2 77 -15 2 -10 -1 -23 -8 -30 -8 -8 -10 -6 -5 9 5 15 4 16 -3 6 -5 -7
-8 -21 -5 -30 2 -9 -10 -32 -27 -51 -17 -19 -28 -28 -24 -20 7 12 5 13 -8 3
-8 -7 -18 -9 -23 -5 -4 4 -5 0 -3 -8 3 -8 12 -14 19 -12 11 3 12 1 2 -9 -11
-10 -16 -9 -27 7 -13 16 -13 20 0 27 11 6 12 13 4 27 -8 15 -6 27 7 47 10 16
22 31 28 35 5 4 -8 8 -31 8 l-41 0 1 -52 c1 -45 -2 -54 -22 -64 -34 -17 -37
-23 -19 -37 15 -11 16 -15 2 -41 -13 -24 -13 -31 -3 -38 10 -8 10 -11 0 -15
-6 -2 -12 -9 -12 -14 0 -6 4 -7 10 -4 26 16 5 -32 -33 -78 -24 -29 -55 -69
-69 -89 -14 -21 -28 -35 -32 -31 -4 4 -4 -1 0 -10 5 -13 1 -20 -15 -24 -18 -4
-21 -13 -21 -54 0 -27 2 -49 5 -49 3 0 12 16 20 37 20 47 117 192 146 218 l22
20 -7 -25 c-30 -98 -11 -234 48 -351 140 -277 262 -399 581 -584 105 -61 360
-189 432 -218 24 -9 43 -22 43 -28 0 -5 -4 -7 -10 -4 -5 3 -8 0 -5 -7 5 -13
-84 -62 -115 -63 -8 -1 -14 -6 -12 -13 1 -7 -7 -12 -19 -12 -12 0 -51 -7 -88
-15 -36 -8 -117 -24 -179 -35 -63 -11 -120 -27 -128 -35 -20 -19 -94 -20 -94
-2 0 10 -16 14 -49 16 -87 3 -218 58 -279 117 -6 7 -21 15 -32 19 -10 3 -22
15 -25 26 -4 10 -12 19 -18 19 -13 0 -97 82 -97 94 0 4 -16 23 -35 43 -23 24
-35 46 -35 64 0 21 -4 27 -15 23 -12 -5 -15 3 -15 41 0 28 -4 44 -10 40 -6 -3
-11 -5 -12 -3 -1 2 -5 95 -8 208 -4 148 -6 61 -8 -313 l-2 -518 32 -35 c18
-20 40 -39 48 -43 9 -3 46 -38 83 -78 51 -55 80 -99 125 -190 69 -139 94 -183
105 -183 4 0 7 -7 7 -15 0 -8 3 -15 8 -15 4 0 13 -13 20 -28 6 -16 21 -38 32
-50 11 -12 20 -25 20 -29 0 -4 10 -19 21 -33 l20 -25 -6 25 c-5 19 -4 22 4 10
6 -8 8 -22 6 -31 -3 -9 2 -22 10 -29 13 -11 14 -10 9 6 -6 18 -5 17 9 -1 9
-11 11 -22 6 -23 -5 -2 5 -21 22 -43 17 -21 36 -36 41 -33 6 4 8 3 5 -3 -7
-12 60 -80 70 -70 3 4 1 7 -5 7 -7 0 -12 5 -12 11 0 8 5 8 15 -1 8 -7 12 -16
9 -21 -3 -5 11 -24 30 -43 20 -18 36 -30 36 -27 0 9 195 5 210 -4 5 -3 10 -2
10 2 0 5 15 8 34 8 19 0 32 -3 29 -7 -2 -5 -17 -8 -33 -8 -22 0 -28 -4 -27
-19 1 -11 10 -22 21 -25 17 -4 18 -8 8 -18 -11 -11 -16 -9 -28 6 -14 20 -14
20 -15 0 0 -11 -3 -14 -6 -6 -3 7 0 19 6 26 17 21 -13 43 -34 26 -13 -11 -13
-15 -3 -21 10 -6 10 -9 1 -9 -7 0 -17 9 -23 20 -6 11 -17 20 -25 20 -30 0 -30
-78 1 -81 8 -1 20 -2 27 -3 6 -1 16 -5 20 -11 4 -6 6 1 4 15 -2 14 -2 20 0 14
2 -7 22 -12 44 -12 45 -1 64 22 35 43 -15 12 -13 14 19 25 19 6 33 15 31 19
-3 4 24 7 60 7 50 0 63 -3 59 -14 -2 -7 -1 -10 4 -7 5 3 12 1 15 -4 3 -5 0
-11 -8 -14 -8 -3 -17 1 -20 9 -9 23 -28 6 -21 -19 2 -12 2 -16 -1 -9 -3 6 -10
10 -15 6 -14 -8 -11 -24 6 -24 8 0 15 -4 15 -10 0 -5 5 -10 11 -10 5 0 7 5 4
10 -9 14 38 13 52 -1 18 -18 40 -3 45 30 4 24 0 32 -15 37 -20 6 -37 -9 -37
-33 0 -7 -10 -13 -22 -12 l-23 0 22 16 c17 11 20 19 13 33 -8 15 -5 17 23 16
18 0 35 -5 39 -11 5 -7 8 -6 8 1 0 7 40 10 119 10 66 -1 119 -3 119 -6 -2 -22
4 -31 17 -26 8 3 15 1 15 -4 0 -6 -5 -10 -12 -10 -6 0 -4 -6 7 -13 12 -10 14
-16 7 -21 -7 -4 -17 -4 -22 -1 -5 3 -10 1 -10 -5 0 -6 10 -10 23 -8 18 2 22 9
22 38 0 28 -4 35 -25 41 -14 4 -23 8 -20 9 12 5 160 5 160 0 0 -3 -9 -11 -20
-18 -11 -7 -20 -19 -20 -27 0 -8 -5 -15 -11 -15 -6 0 -9 6 -6 13 3 7 -3 13
-13 13 -11 0 -18 -7 -17 -18 1 -9 3 -15 5 -13 3 2 13 0 23 -5 12 -7 19 -6 22
3 2 6 8 8 13 4 5 -5 1 -14 -8 -21 -10 -7 -15 -16 -11 -19 10 -11 25 -8 18 3
-3 6 1 10 10 10 9 0 13 -4 10 -10 -3 -5 -4 -10 -1 -10 3 0 10 10 17 21 6 12 7
19 2 16 -5 -4 -10 7 -10 23 0 37 12 30 21 -11 7 -39 39 -37 44 3 2 16 11 28
23 31 23 6 25 -10 3 -41 -15 -21 -14 -22 13 -22 21 0 24 3 14 9 -12 8 -12 12
-2 25 23 28 8 41 -49 41 -29 0 -55 5 -57 11 -2 5 8 10 22 10 14 0 25 -4 25 -8
0 -4 5 -8 11 -8 5 0 8 3 6 8 -3 4 35 7 84 8 65 0 86 -3 79 -11 -7 -8 -5 -12 5
-12 8 0 12 4 9 8 -2 4 0 10 5 13 5 3 11 -1 15 -9 3 -8 13 -15 23 -15 15 0 15
-2 4 -9 -8 -5 -21 -7 -30 -4 -13 5 -14 3 -4 -7 8 -9 9 -19 3 -30 -8 -14 -5
-17 14 -17 17 0 22 4 19 17 -3 10 7 29 21 45 30 32 34 45 9 23 -19 -15 -57
-13 -47 3 3 5 10 6 16 3 6 -4 8 -2 5 4 -4 5 13 22 38 36 43 26 163 119 217
169 l26 24 -3 -43 c-2 -36 -12 -54 -55 -104 -54 -62 -64 -86 -47 -107 7 -10 3
-13 -17 -13 -16 0 -29 -7 -33 -17 -6 -15 -7 -15 -14 3 -6 16 -8 15 -8 -8 -1
-15 -6 -30 -11 -33 -13 -8 -13 -25 1 -25 5 0 7 5 4 10 -3 6 0 10 9 10 8 0 17
6 19 13 4 9 6 9 6 0 2 -23 59 -15 85 12 24 23 24 25 5 25 -11 0 -18 -4 -14 -9
6 -11 -22 -28 -45 -27 -8 1 -15 8 -15 16 0 8 5 14 11 13 6 -1 24 11 39 27 16
17 34 30 41 30 7 0 42 30 78 67 56 57 67 64 81 53 21 -18 19 -31 -14 -78 -25
-33 -27 -41 -15 -46 22 -8 24 -8 24 6 0 7 15 37 34 68 40 64 71 167 63 207 -3
15 -9 42 -13 58 -6 28 -5 29 8 11 20 -26 22 -117 4 -179 -8 -29 -31 -78 -51
-111 -19 -32 -35 -59 -35 -60 0 -3 561 2 565 5 10 10 -25 136 -57 209 -31 68
-39 103 -27 111 6 3 -11 10 -37 13 -77 11 -108 17 -111 20 -2 2 3 34 11 73 8
38 17 80 20 93 2 14 14 47 26 74 18 39 20 55 12 86 -6 24 -6 55 1 86 9 42 7
58 -11 106 -19 51 -21 78 -21 248 0 114 4 190 9 190 6 0 11 -6 11 -12 2 -18 2
-19 -7 -52 -4 -19 -3 -27 3 -23 6 4 13 -37 17 -111 4 -64 9 -145 13 -180 5
-57 8 -62 30 -62 30 0 32 7 36 109 2 54 8 86 15 89 7 2 12 -3 12 -10 0 -21 42
-54 63 -50 14 3 17 -1 12 -20 -4 -16 -1 -29 9 -37 11 -9 16 -10 16 -2 0 6 5
11 10 11 6 0 10 -7 10 -16 0 -9 5 -12 12 -8 8 5 9 2 5 -9 -3 -9 -2 -19 3 -22
6 -4 10 -1 10 4 0 6 9 11 20 11 11 0 20 5 20 10 0 6 5 10 11 10 8 0 9 -11 5
-32 -6 -30 -5 -31 8 -13 14 19 15 19 21 3 10 -24 25 -23 25 2 0 11 -7 23 -15
26 -17 7 -21 34 -5 34 6 0 10 -7 10 -15 0 -8 4 -15 10 -15 5 0 12 -11 16 -24
4 -17 13 -23 30 -23 13 0 24 2 24 6 -1 7 -31 92 -48 134 -7 16 -12 32 -12 37
0 4 -7 10 -15 14 -22 8 -18 41 8 60 21 15 20 15 -12 2 -40 -16 -86 -5 -101 24
-14 26 -12 63 3 79 10 11 9 13 -6 7 -10 -3 -31 -6 -46 -6 -29 0 -81 -39 -81
-61 0 -9 -4 -8 -15 1 -19 16 -35 4 -36 -28 -2 -42 -17 55 -18 113 l0 50 27
-33 c26 -31 29 -32 54 -19 25 13 26 14 7 25 -11 7 -25 10 -31 6 -6 -4 -8 -3
-5 3 3 5 -6 27 -20 49 -14 21 -23 36 -18 32 4 -4 15 7 24 25 12 25 23 33 49
35 17 2 32 9 33 15 0 7 4 2 9 -11 15 -36 28 -25 16 13 -6 19 -15 35 -19 35
-15 0 4 62 45 150 52 111 118 278 118 297 0 8 12 30 26 48 14 19 57 97 95 175
38 77 97 189 132 248 35 59 76 136 91 172 65 152 86 188 176 290 124 142 116
133 117 113 0 -10 2 -34 5 -54 6 -41 33 -88 40 -68 3 9 11 6 26 -9 13 -13 27
-20 33 -17 5 4 20 0 33 -8 19 -13 83 -16 362 -21 186 -3 411 -8 499 -12 186
-8 251 -2 260 26 4 13 15 18 40 17 19 -1 37 1 39 4 3 2 6 36 7 74 l2 69 26
-32 c14 -19 65 -80 112 -137 75 -91 94 -123 149 -247 117 -264 257 -542 302
-604 25 -33 68 -83 95 -109 49 -47 49 -49 35 -77 -13 -27 -12 -31 24 -76 20
-26 51 -61 67 -79 25 -27 29 -37 23 -66 -4 -19 -2 -46 4 -61 6 -17 6 -26 0
-26 -16 0 -12 -17 6 -24 10 -4 13 -2 8 7 -4 6 2 4 14 -7 12 -10 27 -35 33 -55
6 -20 16 -41 21 -48 5 -7 6 -18 2 -25 -4 -7 -4 -10 1 -6 4 4 14 3 21 -3 18
-14 0 -49 -24 -49 -13 0 -14 2 -3 9 8 5 9 11 3 15 -5 3 -15 0 -21 -8 -9 -11
-8 -15 6 -21 10 -5 23 -7 29 -6 6 1 17 -12 24 -29 11 -26 10 -33 -3 -48 -15
-17 -17 -21 -17 -43 0 -6 -9 -8 -22 -4 -18 5 -19 4 -8 -4 8 -5 11 -13 7 -17
-10 -10 -17 -1 -23 30 -3 21 -1 24 13 19 15 -5 14 -3 -2 10 -15 11 -22 12 -28
4 -5 -7 -7 -3 -4 10 3 16 0 23 -9 23 -8 0 -14 -11 -15 -27 -2 -51 -4 -56 -18
-61 -8 -3 -11 0 -8 6 7 11 -28 25 -55 22 -10 -1 -18 4 -18 9 0 6 -8 11 -19 11
-10 0 -24 7 -31 15 -14 17 -40 20 -40 5 0 -5 -5 -10 -12 -10 -6 0 -8 3 -5 7 4
3 2 12 -4 20 -9 10 -8 13 0 13 7 0 11 6 10 12 -1 7 -1 30 0 51 1 34 4 38 21
32 20 -6 28 9 10 20 -5 3 -10 15 -10 26 0 16 -5 19 -22 15 -13 -3 -17 -3 -10
0 16 8 15 32 -3 50 -13 14 -15 14 -15 0 0 -9 -7 -16 -15 -16 -8 0 -15 3 -15 8
0 18 41 29 115 31 83 3 95 5 95 23 0 6 -10 8 -24 4 -14 -3 -27 -2 -31 4 -3 5
-19 7 -36 3 -24 -5 -28 -3 -23 11 5 14 0 16 -36 11 -35 -4 -41 -2 -36 10 4 12
-3 15 -32 16 -67 2 -97 -3 -113 -17 -20 -18 -29 -18 -29 1 0 20 -10 19 -26 -2
-9 -12 -13 -14 -14 -5 0 7 -5 10 -10 7 -6 -3 -10 -1 -10 4 0 7 -27 11 -68 11
-64 0 -68 -1 -67 -22 0 -13 -4 -117 -10 -233 -5 -115 -9 -216 -8 -222 0 -7 -3
-13 -7 -13 -14 0 -17 141 -8 303 6 87 7 168 4 180 -3 12 -16 27 -30 33 -20 9
-25 9 -29 -6 -4 -14 -21 -17 -123 -18 -65 -1 -239 -5 -385 -8 l-266 -7 -6 44
c-3 23 -6 140 -7 259 l-1 217 408 7 c243 5 412 11 418 17 6 6 10 55 10 111 0
98 1 101 25 110 40 15 7 26 -101 35 l-94 8 -30 47 -30 46 -121 7 c-185 11
-1060 -1 -1116 -15 -37 -9 -51 -18 -63 -42 -19 -38 -19 -42 0 -34 8 3 15 1 15
-4 0 -12 -47 -13 -54 -2 -2 4 2 22 11 40 9 18 12 36 8 40 -4 4 -10 1 -12 -5
-3 -9 -10 -10 -21 -4 -9 5 -26 5 -37 0 -11 -4 -15 -8 -8 -8 19 -1 11 -41 -9
-41 -10 0 -17 -6 -16 -12 2 -8 -10 -14 -32 -16 -19 -1 -42 -6 -50 -9 -8 -3
-25 -5 -37 -4 -13 1 -23 -3 -23 -9 0 -6 3 -9 7 -7 5 3 18 1 31 -4 21 -8 22
-14 22 -113 0 -74 -4 -106 -12 -109 -7 -3 11 -6 41 -6 563 -9 788 -13 799 -16
9 -3 12 -59 11 -237 -1 -128 -4 -244 -8 -257 l-6 -24 -383 1 c-210 1 -394 5
-408 8 -14 4 -30 2 -36 -4 -7 -7 -7 -82 1 -244 7 -143 8 -251 3 -280 -5 -27
-6 -48 -3 -48 13 0 3 -96 -19 -175 -15 -51 -19 -80 -12 -83 6 -2 8 -10 5 -18
-4 -12 -8 -12 -13 -4 -4 7 -23 -34 -43 -96 -74 -227 -76 -238 -78 -402 -1 -84
0 -154 2 -156 2 -2 14 -7 27 -10 23 -8 25 -5 36 46 4 19 11 26 21 22 11 -5 15
1 15 19 0 14 4 29 10 32 14 8 13 -31 -1 -58 -10 -18 -8 -24 20 -48 28 -23 38
-26 64 -18 33 9 94 8 112 -2 14 -8 95 -5 123 5 12 4 22 13 22 21 0 7 7 16 16
19 25 10 64 7 64 -5 0 -7 11 -8 30 -4 19 4 30 3 30 -4 0 -6 7 -11 15 -11 8 0
15 5 15 10 0 6 5 10 11 10 6 0 9 -6 6 -14 -6 -15 28 -11 51 7 9 7 19 4 35 -11
18 -16 25 -18 38 -9 8 7 18 19 21 28 3 9 22 24 42 33 24 11 38 26 42 44 3 15
7 33 10 40 5 18 41 15 63 -7 19 -19 19 -18 26 43 3 34 10 68 15 76 9 14 12
-34 14 -207 1 -28 3 -53 6 -56 3 -2 19 -7 37 -10 l31 -6 -5 78 c-6 84 3 191
16 191 5 0 11 -23 15 -50 l7 -50 21 19 c11 11 37 22 57 25 44 8 133 -14 139
-33 3 -8 0 -11 -7 -7 -6 4 -11 0 -11 -9 0 -11 -5 -15 -15 -11 -8 3 -15 1 -15
-4 0 -5 -7 -7 -16 -3 -12 4 -15 0 -12 -22 2 -16 10 -29 18 -31 8 -1 24 -5 35
-9 16 -6 17 -5 5 4 -13 9 -11 11 7 11 16 0 20 -5 16 -20 -3 -12 1 -22 11 -26
19 -7 21 -40 4 -47 -7 -3 -3 -4 8 -4 14 1 20 6 17 14 -3 7 -1 19 5 26 5 6 8
22 7 34 -1 13 2 23 7 23 4 0 8 -9 8 -21 0 -12 8 -23 20 -26 11 -3 20 -8 20
-12 0 -11 55 -9 62 2 5 8 8 6 8 -5 0 -13 8 -18 30 -18 17 0 30 5 30 13 0 8 3
7 9 -3 6 -8 8 -17 6 -20 -2 -3 108 -5 243 -5 l247 0 -3 138 c-2 86 1 137 7
137 15 0 23 -74 19 -181 l-3 -96 30 7 c16 3 51 3 77 0 33 -5 49 -3 52 6 3 9
17 11 40 7 28 -4 36 -2 36 9 0 9 7 21 15 28 8 7 12 17 9 22 -4 6 -10 5 -15 -3
-6 -10 -9 -11 -9 -1 0 6 -7 12 -15 12 -10 0 -15 11 -15 35 0 27 -4 35 -17 35
-17 1 -17 1 0 11 10 6 23 22 28 37 7 19 12 23 18 13 5 -7 11 -9 14 -4 7 11 37
11 55 -1 6 -4 12 -3 12 2 0 5 12 9 28 9 15 -1 34 1 42 4 8 2 19 -6 25 -18 10
-24 25 -31 25 -13 0 6 5 10 10 10 6 0 10 -7 10 -15 0 -8 -4 -15 -10 -15 -5 0
-7 -6 -4 -13 2 -7 -5 -39 -16 -71 -33 -97 -41 -91 129 -91 146 0 149 0 138 20
-17 30 -22 789 -7 984 6 85 15 162 19 173 6 18 8 18 28 -4 19 -21 20 -29 12
-93 -60 -476 -61 -736 -4 -1009 13 -61 13 -72 0 -86 -18 -20 -20 -39 -3 -22 7
7 19 12 27 12 12 0 12 -3 3 -12 -15 -15 -16 -28 -2 -28 6 0 15 11 20 25 5 14
17 25 27 25 15 0 15 2 4 9 -9 6 4 8 39 6 30 -2 48 0 40 5 -10 6 -11 26 -6 82
6 65 11 80 51 138 67 98 118 144 314 287 22 16 177 63 207 63 13 0 25 4 28 9
3 5 21 12 41 15 57 11 55 29 -3 25 -39 -3 -48 -1 -40 9 7 8 7 12 -2 12 -14 0
-83 -31 -90 -40 -10 -13 -49 -30 -69 -30 -22 0 -28 14 -11 25 5 3 26 31 46 61
22 33 54 65 81 80 39 24 51 26 103 20 49 -6 60 -4 60 8 0 27 -12 45 -26 39 -8
-3 -14 -1 -14 5 0 5 -6 10 -12 9 -46 -1 -48 1 -30 33 13 22 22 28 39 24 25 -7
43 19 43 63 0 22 2 25 10 13 8 -13 10 -12 10 3 0 9 -4 17 -9 17 -5 0 -11 8
-15 18 -3 9 -9 23 -12 30 -3 6 -1 12 5 12 6 0 22 -24 37 -54 l27 -55 -18 -90
-17 -90 32 -58 c69 -122 71 -127 64 -158 -17 -81 -56 -149 -135 -238 -45 -51
-112 -137 -148 -192 l-67 -100 46 0 c29 1 49 -4 58 -14 11 -14 11 -14 6 1 -8
23 94 242 120 260 7 5 6 8 -3 8 -7 0 3 18 25 43 21 23 42 41 47 39 5 -1 5 2 2
8 -4 6 -1 19 7 28 38 48 61 124 59 194 -1 26 3 56 8 65 5 10 24 56 40 102 55
148 125 220 231 236 25 3 105 18 179 32 159 30 222 28 361 -12 52 -15 108 -30
123 -32 16 -3 31 -13 35 -22 3 -9 11 -20 19 -24 18 -11 17 -117 -2 -143 -8
-10 -15 -28 -15 -38 0 -11 -8 -28 -17 -39 -15 -16 -17 -34 -15 -113 3 -81 2
-94 -12 -94 -12 0 -16 -10 -16 -40 0 -22 -4 -40 -10 -40 -6 0 -10 -26 -10 -59
0 -32 -3 -86 -6 -120 -6 -50 -10 -61 -25 -61 -15 0 -19 -8 -19 -40 0 -35 3
-40 23 -40 12 0 29 -5 37 -11 12 -9 12 -10 -3 -5 -10 3 -34 6 -53 6 -34 0 -34
0 -36 48 l-1 47 -4 -41 -4 -41 -67 -10 -67 -10 73 -1 c88 -2 97 -21 10 -24
l-63 -1 65 -6 65 -6 -85 -7 c-47 -5 -191 -8 -321 -8 -200 0 -236 -2 -236 -15
0 -8 7 -17 14 -19 8 -3 11 -1 8 4 -3 6 0 10 7 11 7 0 21 2 30 4 10 2 20 -1 24
-6 3 -5 13 -5 22 -1 27 13 127 8 124 -6 -3 -17 18 -15 24 3 4 8 12 15 19 15 7
0 15 -7 19 -15 3 -8 11 -15 17 -15 8 0 8 4 1 13 -8 10 14 12 108 12 65 0 113
-3 107 -7 -8 -5 -6 -8 6 -8 9 0 17 3 17 8 0 4 41 7 90 7 50 0 90 -4 90 -8 0
-5 6 -5 13 0 18 11 30 10 46 -5 20 -19 35 -9 36 24 0 17 6 28 13 26 17 -3 15
14 -4 32 -8 9 -10 16 -4 16 6 0 13 -7 16 -15 4 -8 11 -15 16 -15 6 0 8 7 5 14
-4 9 -1 13 6 10 13 -5 57 38 57 56 0 5 9 14 20 20 15 8 19 17 15 33 -4 14 -3
17 2 9 11 -15 89 90 130 173 15 30 30 52 33 50 12 -7 38 72 33 99 -3 14 -1 26
5 26 6 0 8 -10 5 -22 -4 -22 -4 -23 11 -4 9 11 16 30 16 42 0 13 5 26 11 30 6
3 8 15 6 26 -3 11 1 38 9 60 8 22 14 47 14 54 0 23 -18 16 -23 -8 -3 -21 -4
-20 -11 7 -12 46 -28 75 -43 75 -9 0 -13 17 -13 60 0 45 -4 62 -15 66 -8 4
-15 12 -15 20 0 8 -4 14 -10 14 -13 0 -13 77 0 85 20 12 9 24 -30 36 -38 12
-54 28 -27 30 6 0 -17 10 -53 21 -36 12 -68 25 -71 30 -4 6 -58 17 -122 26
-91 12 -117 19 -120 33 -3 11 -26 21 -73 32 -38 8 -78 19 -88 23 -14 5 -17 4
-12 -4 4 -7 -3 -17 -18 -24 -29 -13 -31 -18 -13 -38 10 -12 9 -12 -5 -1 -9 7
-23 10 -30 6 -7 -4 4 9 24 29 63 61 85 97 112 178 22 63 26 95 26 185 0 134
-27 321 -75 521 -42 173 -40 195 21 231 18 11 44 38 59 60 14 23 32 41 41 41
9 0 31 -16 48 -35 18 -19 36 -35 39 -35 4 0 34 12 66 26 44 20 58 31 54 43 -4
12 -2 13 4 3 8 -10 27 -8 94 8 96 22 214 27 274 11 49 -13 144 -69 208 -122
26 -22 47 -35 47 -29 0 13 -9 22 -70 71 -122 98 -200 125 -329 115 -237 -18
-243 -19 -252 -5 -13 21 -11 80 6 134 8 27 12 51 10 53 -5 5 -7 1 -28 -62
l-13 -39 -11 29 c-6 16 -21 59 -32 97 -19 59 -20 71 -8 100 23 53 35 58 102
42 72 -17 103 -19 89 -5 -11 11 -152 32 -165 24 -5 -3 -18 -22 -28 -42 -17
-33 -19 -34 -25 -14 -4 12 -2 30 3 41 13 24 14 58 2 65 -5 4 -7 -3 -4 -14 3
-11 2 -27 -1 -37 -6 -15 -8 -15 -20 3 -7 10 -25 51 -39 89 -26 73 -103 258
-138 334 l-20 43 103 -6 c170 -11 228 -34 307 -123 29 -32 65 -80 81 -108 31
-54 85 -195 100 -261 5 -22 12 -49 16 -60 8 -26 -64 53 -138 151 -71 95 -68
91 -68 78 0 -9 27 -47 144 -203 8 -11 4 -10 -16 3 -15 9 -31 17 -35 17 -11 0
36 -32 50 -34 15 -2 70 -49 119 -101 21 -22 51 -53 66 -69 15 -16 62 -63 105
-105 43 -41 92 -96 108 -121 l31 -45 -4 60 c-4 54 -7 60 -27 63 -14 2 -21 0
-17 -7 4 -5 14 -8 24 -5 14 5 14 4 3 -4 -11 -8 -30 5 -82 56 -38 36 -66 69
-63 74 3 5 0 7 -8 6 -7 -2 -12 3 -10 10 1 6 -2 11 -7 10 -10 -4 -88 82 -125
136 -40 59 -36 74 22 71 26 -2 86 0 135 3 75 4 85 7 75 20 -10 11 -9 17 5 27
29 21 4 27 -88 21 -62 -4 -85 -2 -86 7 -5 47 2 82 15 89 9 5 14 14 11 19 -4 5
-9 7 -13 5 -4 -2 -7 37 -8 88 0 93 -13 136 -39 136 -8 0 -15 4 -15 10 0 5 -10
12 -22 15 -16 4 -23 13 -23 30 0 12 4 21 8 18 5 -3 11 4 14 15 7 29 32 37 27
9 -2 -12 1 -8 8 10 7 17 16 35 21 39 17 17 5 25 -13 9 -20 -18 -21 -18 -14 1
4 10 15 24 23 31 18 13 23 158 12 333 -3 52 -3 97 1 98 11 5 10 50 0 56 -5 3
-7 19 -4 36 2 18 0 30 -7 30 -6 0 -11 -13 -11 -29 0 -16 -6 -32 -12 -35 -9 -3
-7 -9 6 -20 11 -9 16 -19 12 -23 -4 -5 -13 0 -21 10 -10 14 -14 15 -18 4 -3
-8 -1 -19 5 -25 14 -14 2 -31 -22 -29 -10 1 -17 5 -14 9 3 4 12 4 21 1 11 -4
14 -2 11 8 -3 8 -10 13 -15 12 -6 -1 -2 15 8 35 10 20 25 62 32 92 10 37 16
49 19 35 3 -11 3 -1 1 23 -2 23 0 42 5 42 10 0 8 127 -2 137 -3 4 -6 -6 -6
-22 0 -26 -13 -28 -16 -2 0 7 -2 20 -2 30 -1 11 -7 16 -14 12 -7 -4 1 6 18 22
29 26 31 32 29 86 -1 32 -7 63 -13 69 -13 13 -4 40 11 31 7 -4 8 0 4 11 -4 10
-7 29 -7 43 l0 25 -20 -23 c-17 -21 -19 -22 -20 -5 0 14 -3 16 -13 8 -16 -14
-57 -4 -57 13 0 8 -8 11 -20 8 -11 -3 -20 0 -20 6 0 6 7 11 15 11 8 0 15 8 15
18 0 14 -2 15 -10 2 -10 -16 -13 -11 -23 35 -3 11 -5 -41 -5 -115 0 -79 4
-140 10 -148 8 -9 7 -11 -4 -7 -8 3 -63 57 -122 120 l-107 115 1 254 1 254
-33 -11 c-40 -14 -47 -23 -41 -48 6 -22 19 -25 27 -6 3 6 3 -1 1 -17 -2 -16
-5 -29 -7 -30 -2 0 -13 -7 -26 -14 -19 -10 -23 -10 -28 3 -4 8 -17 15 -30 15
-22 0 -24 -4 -24 -42 0 -24 -3 -54 -7 -68 -6 -23 -5 -24 12 -10 17 14 18 13
11 -5 -14 -33 -25 -88 -20 -96 2 -4 0 -10 -6 -14 -6 -4 -4 -17 6 -36 l15 -30
-31 16 c-17 9 -28 20 -25 25 3 5 0 12 -6 16 -8 4 -9 3 -5 -4 14 -23 -11 -11
-39 18 -25 27 -27 30 -9 30 18 1 18 2 -3 19 -12 10 -28 37 -35 60 -7 22 -17
41 -21 41 -5 0 -5 -4 -2 -10 4 -6 -5 -7 -23 -4 -16 3 -40 1 -52 -6 -19 -10
-27 -9 -49 9 -14 11 -54 40 -88 63 -51 36 -63 50 -72 83 -17 69 -77 110 -144
100 l-42 -6 -97 94 c-77 75 -96 98 -91 115 14 57 -39 181 -132 310 -26 34 -42
62 -37 62 33 0 282 191 374 287 67 69 85 149 48 211 -11 18 -57 57 -102 87
-46 30 -104 72 -130 92 -25 21 -87 67 -137 102 -50 36 -91 66 -91 68 0 2 15
43 33 91 18 48 42 115 52 150 l19 63 65 -131 c63 -125 191 -306 199 -281 2 5
-1 18 -6 28 -6 10 -17 41 -25 68 l-15 50 101 -97 c55 -54 104 -98 109 -98 14
0 -1 39 -43 108 -48 80 -90 197 -134 371 -52 205 -63 366 -24 366 10 0 16 19
21 65 8 68 3 104 -13 95 -5 -4 -9 -1 -9 5 0 6 -4 8 -10 5 -6 -4 -10 14 -9 47
0 29 3 46 6 38 4 -8 13 -21 21 -30 13 -13 14 -7 10 53 -3 37 -3 69 1 71 12 8
3 78 -11 87 -11 7 -10 11 2 19 13 8 13 11 1 19 -16 10 -5 35 11 25 8 -5 9 -1
4 11 -4 11 1 28 11 44 9 14 19 37 21 50 2 14 8 33 13 43 5 10 7 23 4 28 -3 6
-1 10 4 10 6 0 11 16 11 36 0 19 -4 33 -9 29 -6 -3 -6 8 -1 27 5 18 8 120 7
226 -2 151 1 195 11 201 18 10 41 78 41 121 0 19 -11 67 -25 105 -23 62 -25
83 -23 185 2 63 3 130 3 148 0 17 3 32 8 32 4 0 8 -14 8 -32 0 -23 3 -29 11
-21 6 6 13 89 16 214 l5 204 -25 -24 c-16 -14 -28 -40 -33 -65 -3 -22 -10 -43
-15 -46 -5 -4 -11 -26 -14 -50 -7 -52 -14 -62 -21 -33 -3 12 -16 24 -27 28
l-22 8 23 4 c35 7 26 20 -10 15 -30 -5 -32 -4 -19 12 13 16 12 17 -12 11 -39
-10 -33 -1 21 34 27 17 59 42 73 57 13 14 36 32 51 40 24 12 27 20 24 47 -3
18 -5 102 -7 187 -1 111 2 154 10 153 6 -2 11 6 11 17 0 11 7 20 15 20 18 0
20 -36 3 -43 -9 -4 -10 -8 -3 -14 6 -4 10 -36 10 -70 0 -61 9 -82 18 -45 3 9
5 -8 6 -40 0 -31 5 -58 11 -60 6 -2 5 -19 -1 -47 -5 -24 -8 -50 -5 -58 8 -20
26 -16 26 6 0 30 16 33 28 6 7 -14 16 -25 21 -25 4 0 11 -14 15 -32 3 -17 13
-39 21 -48 12 -13 13 -23 6 -43 -7 -18 -7 -28 1 -33 6 -4 8 -3 5 3 -8 12 20
26 34 17 5 -3 7 -10 4 -15 -4 -5 0 -9 8 -9 23 0 42 -31 42 -69 0 -33 2 -36 30
-36 24 0 31 -5 33 -24 3 -15 -3 -30 -14 -38 -10 -7 -13 -13 -6 -13 7 0 12 -32
14 -97 l3 -98 67 -3 c57 -2 68 0 77 16 6 12 9 139 6 350 -4 306 -10 384 -29
353 -4 -6 -2 -11 3 -11 6 0 11 -4 11 -10 0 -5 -7 -10 -15 -10 -8 0 -15 -4 -15
-10 0 -5 -7 -7 -16 -3 -13 5 -15 2 -9 -15 10 -33 -2 -26 -21 11 -9 17 -20 34
-24 37 -14 9 -21 48 -10 55 6 3 10 -3 10 -15 0 -12 4 -18 11 -15 6 4 8 13 5
21 -8 20 9 25 30 9 10 -8 23 -15 29 -15 5 0 -1 7 -13 16 -12 8 -20 20 -17 25
9 14 25 11 25 -6 0 -8 6 -12 13 -9 19 7 57 -67 57 -109 0 -19 4 -37 10 -39 5
-1 10 -38 11 -80 2 -60 6 -78 18 -81 13 -4 13 -5 -1 -6 -14 -1 -18 -10 -18
-36 0 -20 5 -35 12 -35 6 0 4 -6 -7 -13 -10 -8 -15 -19 -11 -25 4 -7 3 -12 -2
-12 -5 0 -12 -13 -14 -29 -2 -17 -1 -28 4 -25 4 3 8 13 8 22 0 13 3 13 12 4
10 -10 10 -17 0 -32 -13 -22 -16 -50 -4 -50 4 0 14 24 22 53 8 28 20 50 25 47
11 -6 11 -282 0 -693 -6 -232 -5 -256 9 -251 11 4 16 0 16 -14 0 -32 -11 -53
-24 -45 -6 4 -6 0 2 -9 10 -13 11 -40 3 -135 -12 -129 -13 -250 -3 -218 5 13
17 21 37 23 68 6 90 16 78 35 -4 7 0 6 10 -2 16 -12 17 -8 17 48 0 45 -5 67
-17 79 -14 14 -14 17 -2 20 11 2 14 20 12 85 -8 321 -11 1017 -4 992 6 -20 9
22 11 130 1 88 4 183 6 210 1 28 5 91 8 142 l5 92 -37 -19 c-20 -11 -48 -20
-63 -20 -42 0 -93 40 -103 81 -26 106 65 172 165 120 l42 -22 -7 78 c-3 43 -9
131 -12 196 l-7 118 -128 -2 -129 -2 0 -46 c0 -25 -5 -62 -11 -81 -6 -19 -12
-58 -13 -86 -1 -34 -8 -57 -19 -69 -20 -19 -36 -13 -19 7 7 9 6 17 -4 26 -12
11 -14 10 -14 -3 0 -12 -3 -13 -19 -3 -11 7 -18 16 -15 20 3 4 -2 5 -10 2 -9
-3 -16 -15 -16 -25 0 -10 -5 -19 -11 -19 -7 0 -9 10 -7 24 4 20 0 26 -16 28
-18 3 -21 9 -19 40 1 21 9 48 18 62 9 13 18 34 20 47 3 13 7 36 11 52 l6 27
-130 0 c-116 0 -131 -2 -135 -17 -4 -17 -5 -17 -6 0 -2 27 -19 20 -24 -10 l-4
-28 -2 29 c-1 24 -3 27 -16 16 -10 -9 -15 -9 -15 -1 0 8 -44 11 -142 11 l-141
0 6 -454 6 -454 -87 -31 c-48 -18 -127 -51 -177 -75 l-90 -42 -3 252 -2 252
-26 6 c-49 13 -48 88 2 100 24 6 24 8 24 134 0 70 2 163 3 207 2 44 2 86 -1
93 -3 8 -30 12 -88 12 l-84 0 -1 -67 c-1 -38 -1 -128 1 -201 2 -131 2 -132 31
-161 16 -16 29 -39 29 -51 0 -28 -25 -76 -44 -83 -24 -9 -23 -463 1 -489 8
-10 19 -15 23 -13 4 3 7 -3 6 -13 -1 -12 6 -17 23 -16 23 1 23 0 5 -13 -20
-15 -39 -13 -39 5 0 6 -7 17 -15 24 -12 11 -12 11 -2 -4 23 -30 -4 -27 -79 9
-139 66 -389 132 -584 154 -136 15 -294 4 -427 -30 l-107 -28 -43 35 c-24 19
-115 90 -203 158 -212 163 -455 406 -517 516 -12 21 -25 38 -30 38 -14 0 -21
-51 -10 -73 10 -21 11 -20 11 8 l1 30 18 -30 c10 -16 21 -46 24 -65 4 -19 9
-43 13 -52 5 -12 2 -18 -8 -18 -17 0 -47 41 -47 65 0 8 -4 15 -10 15 -5 0 -10
-19 -10 -41 0 -36 2 -40 15 -29 13 11 15 9 14 -16 -2 -16 6 -45 16 -64 16 -30
16 -33 2 -21 -15 12 -17 11 -17 -4 0 -9 10 -25 23 -36 19 -16 19 -18 5 -19
-21 0 -21 2 -8 -75 13 -77 1 -585 -13 -540 -5 17 -10 154 -13 305 -2 151 -6
298 -8 325 -2 28 -5 59 -5 71 -1 11 -8 29 -16 40 -14 18 -15 17 -10 -16 3 -19
8 -51 10 -70 3 -19 5 -136 5 -260 0 -215 14 -527 26 -576 5 -19 1 -24 -19 -29
-53 -14 -88 -85 -42 -85 9 0 23 -7 32 -16 14 -14 13 -18 -11 -43 -33 -34 -32
-37 2 -36 20 0 28 -5 30 -22 5 -32 -48 -56 -122 -56 -59 0 -60 -16 -1 -17 29
-1 30 -1 6 -11 -13 -5 -55 -14 -94 -19 -38 -6 -74 -13 -79 -16 -20 -13 18 -35
103 -61 49 -15 89 -31 89 -36 0 -18 -138 -142 -188 -169 l-50 -27 -15 45 c-15
45 -15 46 7 39 38 -13 86 -17 86 -9 0 5 -36 43 -79 85 -55 53 -90 97 -112 140
-17 35 -40 75 -50 90 -17 24 -17 25 2 37 10 7 19 16 19 20 0 17 -43 33 -71 27
-32 -7 -38 -21 -11 -28 11 -3 8 -5 -9 -6 -24 -1 -26 2 -25 39 0 24 6 42 14 45
11 4 13 -1 8 -20 -8 -32 -1 -31 46 2 44 30 46 56 5 61 -27 3 -28 6 -40 72 -3
14 -17 81 -31 149 -14 68 -26 125 -26 127 0 2 -4 4 -10 4 -5 0 -10 -7 -10 -15
0 -8 -6 -12 -15 -9 -8 3 -43 -11 -77 -32 -85 -50 -85 -50 -69 -31 8 10 43 34
78 54 49 27 63 39 58 52 -4 9 -27 71 -52 139 -26 67 -48 120 -50 118 -3 -3
-13 -49 -24 -103 -10 -54 -23 -111 -29 -128 -11 -31 -7 -29 28 19 37 49 24 10
-15 -48 -32 -46 -39 -52 -48 -38 -11 20 -13 360 -2 452 8 64 8 66 -40 160 -27
52 -78 142 -114 200 -70 112 -152 260 -144 260 16 0 241 -369 293 -480 20 -41
27 -50 30 -34 5 31 -82 189 -231 421 l-92 143 -116 0 -116 0 -14 -62 -13 -63
-9 63 c-7 43 -14 62 -24 62 -11 0 -13 -7 -9 -26 10 -40 8 -306 -4 -589 -7
-143 -13 -261 -14 -262 -1 -2 -54 10 -117 26 -63 16 -148 32 -189 36 -90 8
-260 -15 -370 -49 -119 -38 -119 -38 -125 -8 -3 15 -19 77 -35 137 -17 61 -39
151 -49 200 -22 105 -97 419 -116 485 l-12 45 -162 3 -162 3 2 -128 c3 -126 2
-130 -34 -223 -39 -102 -107 -316 -156 -495 -49 -176 -79 -330 -91 -470 -10
-106 -17 -140 -38 -182 -15 -28 -28 -50 -30 -49 -1 2 -2 350 -2 775 l0 771
-120 0 c-118 0 -120 0 -121 -22z m881 -1148 c6 -63 10 -164 9 -225 -1 -61 4
-122 10 -138 16 -42 13 -56 -6 -22 -9 17 -19 32 -22 35 -15 11 -82 278 -80
318 0 9 13 -32 29 -93 45 -176 49 -178 49 -30 0 72 -6 184 -14 250 -8 66 -14
127 -14 135 3 33 28 -122 39 -230z m5064 -256 c3 -9 6 -35 6 -58 0 -61 17
-105 58 -148 39 -41 73 -54 103 -37 18 9 20 17 14 47 -10 61 -26 103 -36 96
-6 -3 -5 -11 2 -20 6 -8 9 -17 6 -20 -3 -3 -15 12 -26 35 -21 40 -28 101 -13
101 12 0 56 -86 77 -148 21 -64 17 -164 -7 -188 -39 -40 -159 37 -197 127 -23
52 -39 183 -28 213 8 21 33 21 41 0z m-1733 -238 c6 3 26 -2 45 -11 26 -12 39
-14 49 -5 9 8 15 8 20 0 3 -6 10 -8 14 -5 10 6 -4 -71 -26 -138 -11 -37 -18
-45 -28 -37 -7 5 -10 22 -8 38 4 24 2 24 -13 -8 -15 -32 -17 -33 -24 -15 -5
11 -9 17 -9 13 -1 -7 -97 24 -108 35 -10 11 -25 8 -18 -3 3 -5 0 -7 -9 -4 -12
4 -13 11 -5 31 14 37 47 84 78 110 21 19 27 20 29 8 2 -8 8 -13 13 -9z m-3985
-77 c-16 -79 -37 -316 -35 -383 l1 -41 10 45 c6 25 16 68 23 95 l13 50 1 -40
c0 -22 -4 -69 -9 -105 -13 -92 -29 -364 -34 -570 -3 -148 -19 -280 -32 -267
-2 2 3 69 11 149 10 114 12 211 5 435 -10 344 -1 484 41 666 17 74 20 50 5
-34z m4331 11 c15 0 9 -44 -14 -108 -13 -37 -19 -43 -37 -38 -11 3 -29 6 -38
6 -13 0 -18 9 -19 33 0 30 -1 31 -11 10 -26 -54 -37 -7 -14 57 7 19 19 35 27
35 8 0 20 8 27 17 11 15 15 15 40 2 15 -7 33 -14 39 -14z m1295 -61 c-3 -38 1
-51 24 -78 14 -17 39 -38 55 -46 35 -19 93 -19 108 -2 15 19 -1 101 -25 129
-14 16 -15 20 -4 16 22 -6 57 -81 65 -139 5 -37 3 -55 -9 -74 -14 -21 -22 -24
-72 -21 -101 6 -183 89 -184 188 0 58 8 80 29 76 12 -3 15 -13 13 -49z m-3351
-271 c12 -24 32 -58 46 -76 14 -18 23 -35 22 -36 -20 -17 -47 -23 -60 -14 -11
8 -10 9 4 4 11 -4 16 -2 12 5 -4 6 -13 8 -21 5 -15 -6 -53 11 -66 29 -5 6 -8
4 -9 -5 0 -10 -3 -8 -9 5 -7 16 -9 17 -9 3 -1 -9 -5 -19 -9 -22 -8 -5 -10 100
-2 106 5 3 72 36 77 37 2 1 12 -18 24 -41z m2015 -114 c1 -59 5 -128 8 -154 6
-46 5 -48 -16 -46 -22 3 -97 22 -126 31 -10 4 0 30 34 92 37 67 99 182 99 183
0 0 1 -48 1 -106z m-708 -148 c25 -39 32 -60 31 -95 -1 -44 -1 -45 -12 -20 -7
14 -17 24 -24 22 -6 -2 -15 1 -19 8 -4 8 -3 9 4 5 7 -4 12 -3 12 1 0 9 -61 35
-68 29 -2 -3 6 -14 18 -26 35 -35 70 -91 70 -113 0 -15 -8 -8 -31 26 -17 26
-35 49 -40 53 -16 10 -10 -13 13 -42 11 -16 -14 7 -56 51 -67 70 -94 87 -47
31 15 -18 15 -19 -2 -13 -10 4 -23 7 -27 7 -16 0 -60 47 -60 64 0 16 45 103
60 116 3 3 21 24 39 48 l34 43 37 -73 c20 -40 51 -95 68 -122z m-1226 77 c15
-15 28 -32 28 -39 0 -6 -34 -39 -75 -73 -41 -34 -75 -60 -75 -57 0 3 15 22 33
43 l32 38 -40 -33 c-45 -37 -55 -28 -35 32 12 37 75 116 93 116 6 0 24 -12 39
-27z m-558 -125 c48 -174 54 -256 31 -418 -9 -67 -15 -124 -12 -126 2 -3 26
20 52 51 40 46 219 185 239 185 3 0 6 -21 6 -47 0 -71 17 -120 57 -164 34 -37
35 -43 30 -89 -5 -41 -20 -85 -44 -132 -2 -5 3 -8 11 -8 36 0 71 163 46 211
-7 14 -8 20 -1 14 6 -6 17 -28 25 -50 l15 -40 0 42 c1 23 -3 45 -9 48 -21 13
-9 35 30 55 46 24 60 25 60 6 0 -8 10 -16 22 -18 29 -4 35 -28 9 -35 -12 -3
-20 -8 -18 -12 2 -3 9 -21 16 -38 7 -18 17 -33 23 -33 6 0 8 -17 6 -39 -2 -22
0 -37 4 -35 5 3 8 -2 8 -10 0 -9 -5 -16 -11 -16 -6 0 -8 -7 -5 -15 3 -9 0 -24
-6 -35 -8 -13 -9 -22 -1 -32 16 -19 -2 -59 -23 -51 -13 5 -15 2 -9 -18 4 -16
3 -20 -3 -11 -7 11 -12 10 -26 -3 -18 -19 -20 -31 -6 -40 6 -3 10 -12 10 -18
0 -8 -3 -8 -9 1 -13 22 -50 -5 -43 -31 4 -16 2 -19 -11 -14 -22 8 -22 -2 -1
-17 14 -10 12 -12 -11 -12 -33 1 -53 -35 -30 -54 11 -9 13 -6 10 16 -3 27 -2
27 12 9 14 -19 15 -19 8 5 -7 22 -6 23 9 11 9 -7 16 -10 16 -5 0 5 14 25 30
44 45 52 127 226 141 297 12 66 10 101 -14 207 -14 63 -14 74 0 130 11 39 16
102 16 174 0 73 4 107 10 97 5 -9 7 -100 5 -203 -2 -131 1 -213 11 -274 13
-79 13 -97 -1 -173 -22 -112 -56 -180 -185 -367 -59 -87 -124 -182 -143 -213
-25 -40 -46 -61 -78 -77 -43 -20 -49 -20 -156 -9 -184 20 -461 93 -577 152
-46 23 -99 67 -99 82 0 8 3 9 8 2 4 -6 23 -20 43 -32 20 -11 49 -29 65 -39
l29 -18 -31 35 c-33 36 -66 94 -91 163 -20 54 -45 158 -39 163 2 3 17 -17 32
-44 36 -63 145 -222 156 -229 16 -10 20 4 8 26 -18 33 -8 33 31 0 46 -39 58
-38 22 3 -40 46 -145 236 -183 331 -29 71 -31 84 -21 117 17 56 32 64 78 39
l38 -21 -33 4 c-22 2 -29 0 -22 -7 12 -12 72 -17 64 -5 -3 5 14 9 38 9 24 0
67 9 97 20 63 23 79 35 33 25 l-33 -7 18 44 c12 30 17 72 18 135 0 88 1 93 21
93 12 0 41 -16 65 -35 49 -39 72 -46 43 -14 -19 22 -19 22 7 16 26 -7 85 7
103 24 5 4 0 7 -11 7 -10 -1 -34 4 -53 12 l-33 14 39 18 39 17 -35 -5 c-25 -3
-44 1 -65 16 -21 14 -25 20 -13 20 9 0 20 5 24 12 5 8 -3 9 -29 5 -51 -8 -46
10 6 22 l42 11 -42 -5 c-24 -3 -43 -2 -43 2 0 22 22 83 30 83 4 0 7 12 5 28
-5 41 21 186 33 190 7 2 22 12 34 22 13 11 25 19 28 20 3 0 23 -64 44 -142z
m-275 -70 c-5 -40 -13 -102 -20 -137 -11 -62 -13 -64 -56 -83 -24 -11 -48 -18
-52 -16 -12 5 82 287 99 298 32 21 36 11 29 -62z m2696 2 c43 -5 84 -15 90
-21 7 -9 7 -10 -1 -6 -12 7 13 -129 40 -218 8 -27 13 -51 10 -54 -3 -3 -19 1
-37 8 -113 46 -257 79 -257 60 0 -5 7 -9 15 -9 34 0 12 -19 -30 -26 -50 -7
-51 -18 -3 -28 l33 -7 -25 -14 -25 -14 25 -9 c25 -10 25 -10 -15 -28 l-40 -19
33 -3 c29 -3 31 -5 21 -23 -16 -31 -3 -35 16 -5 28 43 92 84 121 78 21 -4 24
-9 19 -26 -11 -36 -18 -133 -11 -170 4 -19 18 -50 31 -70 28 -41 27 -41 -22
-21 -43 18 -54 13 -21 -9 28 -18 180 -38 189 -24 3 5 14 6 25 2 10 -4 16 -3
12 1 -10 11 27 36 44 30 7 -3 39 20 70 50 85 82 100 71 49 -38 -37 -81 -136
-219 -220 -305 -64 -67 -236 -190 -270 -194 -9 0 7 -4 34 -7 28 -4 55 -4 60 0
6 3 19 9 30 11 11 3 29 9 40 14 17 6 18 5 8 -7 -7 -8 -16 -34 -22 -58 l-9 -42
54 60 c42 46 76 70 146 106 50 25 93 43 96 40 9 -9 -34 -90 -68 -129 -37 -41
-32 -45 17 -15 46 29 53 17 12 -20 -89 -82 -482 -191 -696 -195 -125 -1 -138
6 -206 125 -27 46 -79 127 -117 179 -92 130 -114 170 -149 276 -40 120 -41
137 -1 99 16 -15 27 -33 23 -38 -3 -6 -1 -7 5 -3 14 8 16 -6 3 -19 -5 -6 -5
-20 1 -35 6 -15 12 -20 15 -12 3 7 -1 19 -7 27 -8 10 -9 15 -2 15 19 0 26 42
8 52 -9 5 -16 17 -16 27 0 11 -7 22 -15 25 -9 3 -23 22 -31 42 -13 32 -14 52
-3 143 7 67 9 156 5 244 -5 93 -4 137 4 137 5 0 10 -4 10 -10 0 -5 7 -10 15
-10 11 0 15 -12 15 -45 0 -37 -3 -43 -17 -38 -14 6 -15 1 -9 -37 8 -53 16 -66
27 -49 7 11 9 10 9 -3 0 -10 -6 -18 -12 -18 -8 0 -5 -7 6 -15 11 -8 15 -15 8
-15 -6 0 -9 -7 -6 -15 4 -8 11 -12 16 -9 6 4 8 1 6 -7 -3 -8 -10 -13 -15 -12
-5 1 -10 -3 -11 -10 -23 -179 -25 -220 -13 -239 10 -16 10 -19 -1 -13 -11 7
-11 6 0 -6 11 -12 15 -11 25 6 7 11 17 36 22 55 9 30 8 37 -9 51 -24 20 -15
49 16 49 16 0 19 3 10 9 -19 12 -38 53 -34 74 5 24 21 21 31 -6 5 -13 23 -35
40 -50 17 -14 31 -31 31 -37 0 -7 7 -10 14 -7 10 4 13 1 9 -9 -3 -7 -1 -14 5
-14 5 0 8 -16 5 -37 -3 -28 -1 -34 6 -23 6 8 11 23 11 33 0 9 6 16 13 15 6 -2
11 2 10 7 -1 6 7 12 18 12 16 2 17 -1 9 -18 -6 -10 -15 -19 -20 -19 -5 0 -14
-8 -19 -19 -14 -25 11 -167 32 -189 27 -27 31 -5 8 47 -30 70 -28 121 5 152
14 13 39 46 55 74 34 60 38 53 41 -80 3 -93 4 -98 16 -70 8 17 20 68 28 114
14 86 20 104 28 80 35 -114 80 -245 84 -249 2 -3 2 13 -1 34 -8 49 3 37 32
-34 48 -119 50 -118 44 30 -4 109 -1 160 16 263 22 135 40 180 100 262 21 28
46 66 57 85 23 42 34 51 54 45 9 -3 51 -9 95 -15z m-1884 -61 c13 -44 9 -155
-6 -207 -10 -33 -29 -66 -51 -88 -39 -38 -55 -40 -31 -2 28 43 49 178 38 244
-8 50 -7 61 7 72 22 16 35 11 43 -19z m594 1 c-36 -113 -45 -306 -21 -432 18
-89 78 -289 111 -369 20 -47 25 -75 25 -147 0 -120 12 -178 60 -280 29 -61 37
-88 29 -93 -7 -4 -13 -20 -14 -36 -1 -15 -5 -36 -10 -47 -7 -17 -6 -17 15 -6
20 11 22 10 17 -4 -8 -20 5 -14 42 18 20 17 23 18 18 4 -4 -12 -2 -15 8 -12 7
3 18 -3 24 -14 9 -17 8 -21 -7 -25 -13 -4 -11 -5 6 -6 21 -1 21 -2 4 -19 -13
-13 -35 -18 -92 -18 -92 -1 -157 -31 -240 -110 l-56 -53 -17 50 c-37 102 -147
204 -272 250 -33 12 -62 24 -64 26 -3 2 5 13 16 26 89 98 146 292 171 582 7
75 15 112 34 150 56 110 108 330 108 460 0 44 5 55 40 92 26 28 44 41 55 37 9
-4 13 -13 10 -24z m1528 3 c-4 -10 -2 -14 5 -9 7 4 10 -4 10 -21 -1 -41 12
-93 24 -93 6 0 8 -7 4 -15 -3 -8 -1 -15 4 -15 5 0 9 -8 8 -17 0 -10 18 -73 40
-140 29 -88 36 -123 27 -123 -8 0 -45 29 -84 65 -76 69 -76 81 -2 39 34 -19
39 -20 21 -5 -14 11 -40 28 -59 38 l-33 18 5 125 c7 129 13 170 28 170 5 0 5
-7 2 -17z m-985 -36 c8 -9 8 -26 1 -57 -6 -25 -8 -73 -5 -106 14 -141 57 -212
121 -200 27 6 28 5 14 -9 -14 -14 -20 -14 -60 3 -54 24 -96 67 -109 113 -11
37 -13 210 -4 247 7 24 26 29 42 9z m2289 -257 c-8 -108 -7 -170 6 -310 9 -96
15 -176 13 -178 -10 -9 -36 186 -36 267 0 52 -3 91 -6 88 -4 -4 -10 -66 -13
-139 l-6 -133 -14 55 c-10 40 -11 55 -2 58 6 2 11 27 11 60 0 32 9 120 20 197
32 222 42 235 27 35z m-3461 -787 c-19 -121 -43 -208 -63 -224 -11 -9 -13 9
-13 102 l0 113 41 63 c23 35 44 62 46 59 3 -2 -3 -53 -11 -113z m-2492 -143
c-25 -95 -50 -182 -55 -192 -10 -18 -140 -121 -146 -115 -6 6 39 128 74 200
31 65 165 287 170 283 1 -1 -18 -80 -43 -176z m1012 153 c29 -29 43 -79 43
-148 0 -33 -2 -36 -9 -18 -12 30 -67 86 -73 76 -7 -10 6 -34 19 -36 5 -1 8 -9
6 -17 -2 -13 -2 -13 7 0 8 12 11 11 17 -5 4 -11 15 -29 24 -40 18 -21 35 -75
24 -75 -9 0 -104 80 -131 110 -28 31 -40 85 -23 105 15 18 34 20 24 3 -4 -7
-3 -8 5 -4 6 4 9 12 6 17 -5 7 23 57 32 59 1 0 14 -12 29 -27z m-1319 -280
c-72 -113 -130 -211 -178 -302 -32 -60 -38 -65 -99 -91 -36 -15 -79 -30 -97
-33 -28 -5 -31 -4 -26 11 22 55 116 192 185 267 46 51 263 245 274 245 2 0
-25 -44 -59 -97z m1167 17 c-22 -49 -25 -63 -14 -70 7 -4 19 -6 27 -3 7 3 13
1 13 -5 0 -5 11 -25 24 -44 l24 -35 -54 -36 c-39 -26 -55 -33 -61 -24 -4 7 -7
48 -7 92 l2 80 -19 -35 c-18 -35 -28 -89 -10 -62 5 9 10 -2 13 -33 9 -77 16
-78 117 -20 21 12 29 11 68 -8 l43 -21 -46 -14 c-51 -15 -127 -65 -116 -77 4
-5 1 -5 -6 -1 -9 6 -25 -5 -48 -29 -19 -21 -34 -34 -34 -29 0 5 -5 2 -10 -6
-16 -24 -30 6 -30 65 0 125 46 295 81 295 5 0 9 5 9 10 0 19 53 95 57 83 3 -7
-8 -40 -23 -73z m1321 21 c32 -62 90 -75 210 -46 80 19 232 19 309 -1 134 -34
242 -120 293 -230 22 -48 26 -75 33 -222 13 -235 11 -250 -38 -377 -16 -41
-102 -153 -129 -169 -13 -7 -13 -10 -2 -17 11 -7 10 -9 -3 -9 -27 0 -22 -19 8
-30 16 -7 24 -16 21 -24 -6 -14 19 -31 37 -27 11 3 46 -29 46 -43 0 -6 -7 0
-16 12 -25 36 -35 25 -11 -12 12 -18 24 -32 27 -30 3 1 7 -7 7 -19 2 -17 0
-19 -7 -7 -7 10 -10 11 -10 2 0 -6 -17 7 -37 30 -21 23 -37 46 -35 52 2 6 0 8
-4 4 -4 -4 -19 3 -35 16 -62 52 -228 106 -327 106 -66 0 -127 32 -146 78 -8
20 -15 31 -15 23 -1 -8 -4 -12 -7 -8 -4 3 3 18 14 32 15 18 19 35 16 54 -4 18
0 32 10 40 9 8 16 19 16 26 0 14 -69 80 -90 87 -23 7 0 28 31 28 60 0 40 61
-25 76 l-31 7 32 13 c17 8 34 18 38 24 11 18 -15 39 -53 42 -37 4 -37 4 -11
15 48 21 42 63 -8 63 -27 0 -28 3 -8 34 9 13 13 31 9 40 -7 18 -29 22 -39 6
-13 -21 -24 -8 -40 48 -12 40 -16 76 -11 120 3 35 1 74 -5 90 -6 15 -12 35
-14 45 -2 10 -11 32 -20 49 -18 37 -18 38 -5 38 5 0 16 -13 25 -29z m-625 -1
c52 -14 112 -20 195 -21 66 -1 110 -4 97 -6 -18 -3 -21 -9 -17 -24 9 -28 -20
-68 -60 -85 -41 -17 -159 -18 -220 -3 -38 10 -46 16 -56 48 -7 20 -13 45 -15
56 -1 11 -5 28 -9 38 -9 21 -7 21 85 -3z m3058 -58 c-22 -86 -119 -139 -241
-130 -52 4 -64 9 -88 36 -46 51 -40 59 54 64 58 4 112 16 182 40 55 19 101 34
102 34 1 -1 -3 -21 -9 -44z m489 -71 c-7 -9 -19 -31 -27 -48 -29 -76 -192
-180 -309 -199 -38 -6 -41 -5 -41 17 1 35 17 52 97 93 73 39 209 148 238 193
l17 25 19 -32 c17 -28 18 -35 6 -49z m-1626 -101 c59 -22 151 -83 184 -122 22
-26 38 -32 108 -45 105 -18 117 -29 117 -106 0 -68 -28 -127 -61 -127 -11 0
-36 -15 -56 -33 -42 -39 -38 -62 8 -52 33 8 40 -10 8 -20 -24 -8 -81 -83 -73
-97 10 -16 66 3 92 31 l24 26 -17 -30 c-10 -16 -28 -41 -40 -55 -27 -30 -55
-83 -55 -104 0 -8 10 -16 23 -18 16 -2 21 -9 19 -23 -4 -26 -34 -85 -44 -85
-4 0 -4 -7 -1 -17 5 -12 3 -14 -8 -8 -8 4 -11 4 -6 0 4 -5 0 -17 -10 -27 -12
-13 -13 -18 -3 -18 7 0 11 -3 8 -6 -4 -3 -48 0 -100 7 -173 22 -323 -18 -417
-112 -24 -24 -48 -43 -53 -42 -4 2 -7 0 -6 -5 3 -8 -41 -82 -48 -82 -3 0 -3 4
0 9 4 5 1 11 -6 13 -15 5 -21 49 -7 45 7 -1 15 10 19 24 8 28 55 80 65 71 3
-4 3 2 -1 11 -4 11 -1 23 9 30 8 7 17 26 20 44 5 27 2 36 -22 55 -52 42 -67
95 -79 288 -21 331 -24 415 -14 440 24 60 136 145 212 161 50 10 157 -1 211
-21z m-2826 -48 c-21 -52 -25 -78 -25 -164 0 -57 4 -109 9 -117 14 -21 53 -7
171 61 149 87 268 144 317 152 l43 6 34 -69 c19 -38 34 -70 33 -72 -1 -2 0 -3
2 -2 6 4 34 -37 30 -42 -2 -2 -28 1 -56 7 -74 15 -191 -8 -334 -66 -62 -25
-115 -43 -117 -42 -5 6 105 55 193 87 53 19 71 29 53 29 -16 0 -28 1 -28 3 0
1 11 24 25 52 14 27 21 51 16 53 -23 8 -53 -23 -80 -83 -19 -41 -36 -65 -46
-65 -26 0 -112 -48 -227 -127 -61 -41 -112 -72 -115 -69 -13 13 -14 89 -1 97
11 7 11 12 0 30 -12 18 -11 20 5 15 21 -7 48 28 37 46 -4 7 -3 8 4 4 9 -5 12
11 12 57 0 35 3 86 6 113 4 35 3 45 -5 34 -20 -28 -24 0 -6 42 17 40 64 102
72 95 2 -2 -8 -31 -22 -65z m4755 -27 c0 -30 -7 -64 -18 -84 l-19 -35 45 -65
c25 -36 56 -75 69 -86 30 -27 29 -31 -9 -55 -49 -30 -82 -25 -199 27 l-106 48
-12 47 c-7 25 -19 49 -28 52 -8 4 -13 12 -10 19 3 8 -1 14 -8 14 -11 0 -11 -5
-3 -20 5 -11 8 -36 4 -56 -4 -25 -2 -31 4 -21 5 8 10 10 10 5 0 -26 -24 -33
-89 -28 -36 3 -100 0 -141 -7 -126 -21 -122 -23 -137 39 -8 30 -12 59 -9 66 2
7 58 31 123 54 146 53 205 55 308 16 162 -63 205 -44 205 88 0 44 3 58 10 47
5 -8 10 -38 10 -65z m-1446 -112 c-2 -27 -7 -63 -9 -80 -2 -18 0 -33 6 -33 5
0 9 -17 9 -38 0 -51 38 -87 105 -102 28 -6 57 -13 66 -16 24 -7 78 -99 69
-115 -7 -10 -11 -10 -24 0 -9 8 -16 20 -16 27 0 18 -36 41 -94 58 -26 8 -62
26 -81 41 l-35 26 11 -24 c6 -13 27 -34 47 -45 41 -24 27 -30 -17 -7 -52 27
-66 74 -63 214 1 68 5 127 8 132 14 23 23 4 18 -38z m-2691 -150 c76 -53 222
-247 257 -343 30 -82 53 -230 54 -347 1 -101 -1 -114 -19 -128 -15 -11 -16
-14 -3 -9 15 5 15 2 6 -30 -6 -20 -15 -36 -20 -36 -5 0 -7 8 -4 18 5 13 0 18
-19 20 -14 1 -25 -3 -25 -8 0 -6 -7 -10 -16 -10 -16 0 -75 -29 -84 -42 -3 -4
-36 -23 -72 -42 -37 -19 -62 -37 -55 -40 7 -2 5 -5 -5 -5 -22 -1 -127 -51
-107 -51 9 0 33 7 52 15 20 8 53 15 72 15 48 0 125 -20 125 -32 0 -6 -7 -7
-16 -4 -8 3 -13 2 -10 -3 8 -12 -10 -17 -69 -20 -66 -3 -157 -27 -216 -56 -51
-26 -70 -34 -288 -119 -79 -31 -172 -71 -206 -89 l-63 -33 -5 56 c-23 215
-225 522 -405 614 l-33 17 108 108 c59 59 155 160 211 225 120 136 226 220
357 282 236 112 409 139 498 77z m-1879 -75 c-13 -39 -24 -79 -24 -87 0 -28
-24 -64 -44 -67 -19 -3 -46 17 -46 33 0 4 -14 16 -31 26 -18 10 -28 21 -24 25
4 4 10 1 12 -5 3 -7 12 -13 21 -13 13 0 12 3 -4 15 -18 14 -18 14 9 15 26 0
33 -11 28 -47 -3 -18 16 -16 23 3 8 20 -11 54 -29 54 -8 0 -15 5 -15 11 0 6
-7 3 -16 -5 -8 -9 -22 -16 -30 -16 -8 0 -14 -10 -14 -25 0 -14 3 -25 8 -24 4
1 17 -2 30 -6 23 -8 28 -20 12 -30 -5 -3 -10 -19 -10 -35 0 -16 -5 -32 -11
-36 -8 -5 -10 3 -6 27 4 22 1 41 -8 52 -14 19 -15 3 -15 -152 0 -28 11 -42 17
-23 3 6 9 12 14 12 13 0 11 -28 -3 -32 -8 -3 -5 -15 11 -36 l22 -32 -20 -22
c-12 -12 -23 -19 -26 -16 -3 3 1 13 9 21 16 15 12 47 -5 47 -5 0 -9 9 -9 21 0
11 -4 17 -10 14 -6 -4 -4 -18 6 -37 15 -28 15 -32 0 -40 -10 -5 -16 -22 -16
-43 0 -33 -3 -36 -99 -109 -12 -9 -13 4 -8 89 6 106 22 188 63 325 l26 85 116
67 c65 37 118 67 119 67 1 1 -9 -31 -23 -71z m5835 28 c95 -33 186 -83 281
-154 79 -58 247 -225 330 -327 27 -33 90 -97 140 -143 l90 -84 -37 -25 c-89
-59 -182 -170 -242 -290 -45 -90 -87 -199 -101 -265 -7 -32 -17 -55 -23 -51
-5 3 -5 -2 1 -13 23 -46 -1 -43 -116 16 -64 33 -166 77 -227 99 -60 22 -166
65 -235 97 -113 52 -132 58 -200 60 -41 1 -60 0 -42 -3 17 -2 32 -7 32 -11 0
-4 -24 -23 -53 -42 -117 -77 -175 -124 -186 -147 -7 -14 -14 -23 -17 -20 -3 3
-2 12 2 19 5 7 9 18 10 23 0 6 2 15 2 21 1 6 20 21 43 33 22 13 38 25 35 28
-3 3 -12 0 -21 -7 -8 -7 -15 -9 -15 -4 0 5 -4 3 -9 -5 -5 -7 -32 -22 -60 -31
l-51 -18 -19 24 c-21 27 -98 251 -131 381 -20 83 -28 262 -13 333 l6 33 11
-33 c17 -50 32 -48 31 5 0 25 1 45 2 45 1 0 24 -33 50 -72 74 -113 173 -212
123 -123 -11 19 -17 35 -15 35 3 0 31 -14 63 -32 l57 -32 -36 40 c-83 94 -149
256 -149 369 0 42 4 64 10 60 6 -3 10 0 10 8 0 7 13 23 29 35 16 11 56 46 89
76 103 97 200 127 377 121 76 -2 118 -9 174 -29z m-3094 4 c4 -6 10 -8 15 -5
4 3 23 -14 42 -38 47 -58 57 -77 27 -52 -13 11 2 -10 34 -47 31 -36 57 -70 57
-75 0 -5 14 -17 30 -26 34 -20 37 -29 15 -47 -12 -10 -15 -9 -16 6 0 11 -3 14
-6 7 -7 -18 -21 -16 -26 5 -3 9 -5 -2 -6 -26 -1 -47 -15 -48 -35 -3 -6 14 -42
72 -80 129 -49 73 -69 114 -72 142 -3 38 7 52 21 30z m-228 -80 c7 0 17 -9 23
-20 6 -11 20 -25 31 -31 18 -9 25 -7 48 15 l27 26 49 -19 c31 -12 52 -27 57
-41 4 -12 18 -35 29 -52 12 -16 19 -31 16 -34 -3 -3 -24 0 -48 6 -24 7 -82 11
-129 9 -131 -3 -150 -1 -144 16 4 8 1 15 -5 15 -9 0 -81 137 -81 154 0 2 26
-7 58 -20 31 -13 62 -24 69 -24z m2499 -12 c-3 -18 -9 -56 -13 -85 -5 -47 -10
-56 -36 -69 -42 -22 -109 -40 -202 -53 -44 -7 -97 -17 -118 -22 -20 -5 -43 -7
-49 -3 -6 4 -9 3 -5 -2 3 -5 -6 -14 -19 -21 -13 -6 -22 -7 -18 -2 3 5 -2 9
-10 9 -12 0 -11 10 6 63 23 67 32 76 95 93 37 9 48 8 90 -12 26 -13 57 -23 68
-23 25 -1 95 64 95 89 0 20 71 67 104 69 16 1 18 -4 12 -31z m-2463 -274 c-6
-59 12 -133 34 -141 43 -17 67 79 39 158 -14 39 -11 59 8 59 18 0 36 -59 36
-116 0 -51 20 -94 44 -94 22 0 48 72 41 113 -10 52 0 46 30 -18 39 -81 96
-120 110 -74 5 14 -4 39 -30 80 -20 33 -35 66 -33 74 5 25 50 -5 83 -57 17
-26 41 -51 55 -57 14 -5 75 -10 135 -9 90 1 122 -3 175 -21 120 -41 201 -101
287 -213 95 -124 122 -206 153 -472 18 -154 18 -176 5 -251 -19 -110 -36 -177
-48 -193 -5 -7 -7 -15 -4 -19 4 -3 0 -14 -7 -25 -8 -11 -11 -29 -8 -40 4 -16
2 -19 -8 -13 -10 6 -12 3 -7 -15 3 -12 2 -30 -4 -39 -5 -9 -13 -38 -17 -66 -5
-32 -13 -49 -21 -47 -8 2 -10 -4 -6 -18 3 -11 2 -20 -4 -20 -5 0 -12 -10 -16
-22 -11 -42 -38 -98 -46 -98 -4 0 -11 -9 -14 -21 -7 -20 -12 -27 -62 -83 -13
-14 -23 -29 -23 -34 0 -5 -18 -17 -40 -28 -22 -10 -40 -22 -40 -26 0 -5 -5 -8
-10 -8 -6 0 -29 -9 -53 -19 -96 -43 -163 -52 -242 -30 -51 14 -150 77 -166
107 -7 12 -18 22 -25 22 -36 0 -164 247 -155 299 2 13 1 13 -15 0 -16 -12 -17
-12 -12 2 8 21 -29 82 -44 73 -6 -4 -8 -3 -5 4 7 11 -92 84 -131 96 -12 4 -22
10 -22 14 0 4 -18 18 -40 32 -22 14 -40 29 -40 33 0 5 -7 6 -16 3 -8 -3 -12
-2 -9 4 4 6 -8 18 -24 28 -17 9 -34 25 -37 34 -3 10 -16 26 -29 36 -13 11 -30
32 -37 48 -7 16 -28 51 -46 78 -30 46 -33 54 -27 100 8 61 26 102 60 138 14
15 25 30 25 34 0 3 38 47 83 98 102 111 149 178 177 254 31 81 37 199 15 314
-13 73 -14 99 -5 122 l11 30 13 -26 c8 -15 12 -44 9 -74z m2365 -45 c-19 -94
-22 -143 -21 -279 1 -158 3 -170 37 -285 20 -66 36 -122 36 -125 0 -3 -9 6
-20 20 -36 48 -30 12 8 -46 54 -81 112 -199 128 -259 30 -109 8 -274 -43 -328
-15 -15 -47 -37 -72 -49 -134 -63 -268 -176 -301 -253 -10 -23 -28 -78 -40
-121 -12 -44 -37 -101 -56 -129 -37 -56 -115 -136 -95 -97 6 12 17 22 24 22 8
0 7 4 -3 11 -13 9 -12 10 3 5 16 -5 22 5 18 28 -1 4 4 14 10 22 9 11 6 14 -17
14 -15 0 -41 -4 -58 -10 -17 -5 -44 -12 -59 -15 -15 -3 -25 -10 -22 -15 3 -6
-4 -11 -17 -11 -46 -2 -94 -6 -163 -14 -116 -12 -231 12 -320 69 -40 26 -125
107 -125 121 0 5 -9 21 -20 35 -11 14 -20 32 -20 41 0 9 -9 28 -21 43 -11 14
-17 30 -14 36 3 5 1 10 -6 10 -8 0 -10 14 -6 47 4 35 2 42 -5 29 -6 -10 -8
-38 -4 -63 4 -28 2 -42 -4 -38 -22 14 -3 144 54 371 54 216 62 290 47 436 -7
68 -21 163 -32 213 -23 110 -24 147 -2 193 24 52 110 135 171 166 160 81 317
73 561 -29 47 -19 87 -33 89 -30 5 4 -47 29 -143 69 -19 8 -35 17 -35 19 0 18
33 77 43 77 8 0 9 -3 1 -8 -14 -9 -11 -49 4 -64 17 -17 56 14 100 80 41 62 56
92 53 105 -1 5 3 5 9 2 7 -4 14 2 17 14 6 22 6 22 20 2 12 -18 10 -25 -21 -69
-43 -59 -66 -136 -47 -154 21 -21 86 58 107 129 16 58 35 87 65 104 15 7 16 4
9 -27 -5 -19 -15 -43 -22 -52 -19 -23 -51 -92 -54 -117 -1 -11 8 -28 22 -38
23 -17 24 -17 54 25 32 44 64 136 57 166 -3 12 -6 8 -11 -13 -15 -62 -37 -111
-62 -140 -14 -16 -22 -24 -19 -17 4 7 9 28 12 45 2 18 18 56 34 86 17 33 27
62 23 75 -3 15 2 28 17 41 l22 20 -7 -37 c-6 -31 -4 -37 8 -32 8 3 17 15 20
27 3 14 9 18 15 12 7 -7 0 -30 -19 -69 -31 -60 -41 -148 -20 -161 11 -7 56 38
75 75 7 14 16 52 20 85 4 33 13 64 22 70 8 6 16 19 18 30 2 11 4 22 4 24 1 2
3 2 7 -1 3 -3 -5 -57 -18 -119z m1900 -322 c12 -13 25 -37 28 -55 5 -27 3 -32
-12 -32 -33 -1 -90 -26 -128 -56 -48 -37 -112 -122 -180 -237 -30 -51 -63
-101 -75 -111 -21 -19 -22 -19 -49 1 -43 32 -41 81 6 178 65 134 165 248 272
314 48 29 110 28 138 -2z m-5946 -54 c100 -96 213 -274 206 -326 -4 -31 -43
-35 -61 -5 -61 101 -107 166 -147 209 -25 27 -46 50 -45 52 1 1 -10 13 -24 27
-13 14 -20 18 -16 10 5 -10 1 -8 -13 4 -12 11 -20 21 -17 24 3 3 -1 12 -7 20
-10 11 -8 17 7 28 33 24 55 16 117 -43z m-448 -64 c23 -6 56 -21 72 -35 19
-15 22 -22 10 -17 -13 4 -17 3 -12 -5 3 -6 1 -14 -5 -18 -8 -4 -9 -3 -5 4 8
13 4 15 -17 6 -10 -4 -14 -15 -10 -35 5 -35 0 -36 -52 -4 -22 14 -53 25 -68
25 -26 0 -28 3 -25 32 2 23 11 36 28 45 31 16 31 16 84 2z m430 -120 c-6 -11
-128 -82 -141 -82 -6 0 4 -19 22 -41 51 -63 104 -156 98 -172 -7 -19 -61 -47
-78 -41 -7 3 -42 47 -78 99 -36 51 -91 120 -121 153 -39 42 -56 68 -56 88 0
15 5 27 11 27 5 0 8 4 5 9 -9 14 43 4 71 -14 15 -10 47 -36 72 -58 45 -40 45
-40 12 -5 -40 43 -37 50 44 104 l50 34 46 -47 c26 -27 45 -51 43 -54z m6017
80 c16 -11 27 -24 25 -28 -3 -4 5 -13 17 -21 20 -12 21 -12 8 3 -7 10 -11 17
-8 17 10 0 107 -63 107 -69 0 -4 -17 -23 -37 -42 l-38 -35 -123 82 c-75 50
-117 84 -108 87 7 3 18 1 23 -4 6 -6 26 -2 54 10 54 25 45 25 80 0z m-6457
-90 c27 -16 85 -67 130 -112 135 -137 225 -314 226 -444 0 -57 -3 -64 -32 -92
-45 -42 -109 -71 -184 -84 -57 -10 -72 -9 -112 7 -150 57 -179 65 -214 59 -20
-3 -39 -12 -43 -20 -4 -12 0 -14 17 -8 61 19 79 17 145 -16 64 -31 75 -33 173
-34 97 0 108 2 153 28 l47 28 0 -123 c0 -140 13 -234 40 -295 l18 -42 -42 -6
c-49 -8 -432 11 -526 26 -85 13 -172 41 -300 99 -58 26 -127 50 -154 53 -67 9
-132 49 -155 96 -25 49 -51 149 -51 197 0 85 13 104 183 277 145 148 179 177
322 273 193 130 252 164 286 164 14 0 47 -14 73 -31z m6751 -25 l16 -35 -53
-52 c-79 -77 -136 -149 -203 -255 -69 -109 -82 -120 -122 -106 -44 15 -40 44
22 162 82 155 198 298 265 326 40 17 51 11 75 -40z m-557 -92 c20 -11 77 -44
125 -75 48 -30 93 -57 100 -60 8 -2 4 -16 -13 -43 -14 -21 -32 -51 -39 -66 -8
-16 -18 -28 -23 -28 -5 0 -6 -5 -2 -11 3 -6 -43 15 -103 47 l-110 58 3 41 c3
28 -1 44 -13 53 -10 7 -12 12 -4 12 6 0 11 6 9 13 -3 12 21 77 29 77 2 0 21
-8 41 -18z m-790 -119 c59 -25 90 -42 87 -50 -2 -7 -1 -13 3 -13 4 0 8 -12 8
-27 5 -92 10 -123 22 -123 14 0 28 30 37 80 8 49 19 65 41 55 11 -4 27 -10 37
-12 44 -8 57 -22 51 -56 -9 -53 -12 -57 -39 -57 -22 0 -25 3 -19 26 5 19 4 25
-5 20 -6 -4 -11 -16 -11 -27 0 -14 -7 -19 -25 -19 -13 0 -35 -5 -49 -11 -20
-10 -29 -9 -43 2 -9 8 -14 9 -10 2 12 -19 -29 -26 -173 -29 -74 -2 -172 -7
-217 -10 -78 -6 -142 0 -129 13 3 3 -3 18 -14 33 -23 32 -27 102 -7 118 10 9
115 52 126 52 2 0 -3 -8 -12 -18 -8 -9 -20 -30 -26 -45 -7 -17 -15 -25 -23
-21 -7 4 -8 3 -4 -5 4 -6 3 -18 -3 -25 -8 -10 -7 -17 5 -27 14 -11 18 -11 28
2 17 22 92 79 105 79 6 0 11 4 11 9 0 14 43 21 57 10 6 -6 17 -8 23 -4 6 4 19
0 28 -8 25 -21 53 -29 51 -14 -2 11 14 58 27 78 3 5 -2 6 -10 3 -9 -3 -13 -10
-10 -15 3 -5 -2 -6 -12 -2 -15 5 -15 7 0 15 24 13 19 30 -6 24 -13 -3 -17 -3
-10 0 23 11 13 26 -14 20 -17 -5 -23 -3 -19 4 11 18 48 11 143 -27z m-4083
-135 c2 -2 -11 -28 -29 -58 l-33 -55 -89 1 c-98 1 -148 9 -139 24 3 6 11 10
16 10 6 0 7 -4 4 -10 -7 -12 6 -13 31 -3 16 6 16 7 -2 14 -17 7 -17 8 -1 8 9
1 17 6 17 11 0 13 49 60 61 60 16 0 18 1 45 15 22 11 33 11 71 0 25 -8 46 -15
48 -17z m465 -116 c6 -20 13 -118 17 -218 6 -175 -1 -261 -28 -351 -12 -39
-43 -51 -70 -27 -24 22 -25 37 0 29 12 -4 21 0 27 12 4 10 10 124 12 253 3
211 0 267 -22 360 -14 58 46 4 64 -58z m-125 40 c38 -57 48 -135 42 -327 -5
-181 -20 -263 -56 -299 -17 -17 -24 -18 -46 -8 -14 6 -25 18 -25 27 0 17 14
19 40 5 26 -14 28 -5 35 210 7 195 -4 329 -31 382 -16 31 -34 29 -34 -3 0 -13
4 -18 12 -13 7 4 8 3 4 -5 -4 -6 0 -46 8 -89 20 -99 29 -252 16 -252 -6 0 -10
38 -10 93 0 88 -17 189 -42 251 -10 25 -9 31 7 42 10 7 22 11 26 8 5 -3 9 0 9
5 0 22 21 10 45 -27z m-207 -46 c17 -52 28 -399 14 -446 -9 -30 -10 -18 -12
75 -1 72 -5 101 -10 85 -4 -14 -8 -19 -9 -12 -1 6 -6 12 -12 12 -6 0 -8 -9 -4
-22 7 -23 7 -23 -11 1 -12 17 -21 63 -31 160 -7 75 -18 143 -23 152 -13 24 9
40 50 37 31 -3 36 -8 48 -42z m4382 26 c0 -5 -8 -9 -17 -9 -10 1 -49 0 -88 -2
l-70 -2 26 -23 c44 -38 78 -101 36 -66 -48 40 -61 50 -65 45 -3 -2 19 -30 48
-62 50 -55 99 -143 114 -206 6 -25 4 -28 -16 -25 -17 2 -24 13 -34 53 l-12 50
5 -57 c3 -32 3 -58 -1 -58 -3 0 -13 18 -22 40 -15 38 -19 40 -48 35 -17 -4
-53 -9 -81 -13 -30 -4 -50 -12 -49 -20 1 -6 2 -22 3 -34 1 -13 5 -29 10 -37 8
-13 12 -13 27 0 10 8 15 9 11 3 -3 -6 7 -18 24 -28 41 -24 36 -37 -13 -35 -66
3 -79 14 -75 57 7 67 -1 69 -78 16 -17 -11 -36 -19 -42 -18 -7 1 -21 2 -30 3
-16 1 -16 3 -3 12 12 8 10 9 -8 4 -16 -5 -31 -1 -45 12 -12 11 -37 26 -55 33
l-34 13 31 24 c34 27 61 71 61 100 0 12 -5 8 -16 -12 -22 -42 -51 -71 -86 -86
l-30 -12 36 -19 c20 -10 34 -22 32 -27 -10 -15 43 -54 79 -57 19 -2 40 -6 45
-9 20 -13 9 -25 -23 -25 l-33 0 4 -66 c3 -41 0 -70 -7 -77 -8 -8 -11 -5 -11
11 0 13 -14 50 -31 83 -24 49 -38 64 -72 79 -65 30 -103 26 -143 -14 -19 -19
-34 -44 -34 -57 0 -13 -3 -35 -7 -47 -9 -35 -23 -7 -23 46 0 29 -5 45 -15 48
-10 4 -15 17 -13 38 1 17 -4 41 -10 53 -12 22 -17 123 -6 123 3 0 22 -13 42
-29 43 -35 108 -52 155 -41 43 9 87 38 87 56 0 8 7 17 16 21 12 5 13 7 3 14
-8 4 -16 3 -20 -3 -4 -6 -15 -11 -25 -13 -11 -1 -37 -9 -59 -19 -34 -16 -44
-16 -80 -5 -40 13 -49 15 -73 17 -7 1 -10 7 -7 12 3 6 2 10 -2 10 -12 0 -33
59 -33 91 0 18 -3 20 -9 10 -5 -8 -7 -30 -5 -50 3 -32 3 -33 -6 -11 -10 26 -4
-185 6 -240 l6 -27 -84 -6 c-45 -3 -93 -9 -105 -12 -23 -7 -25 -2 -39 105 -4
30 -9 50 -11 43 -7 -19 25 -232 38 -251 10 -16 10 -16 5 1 -3 10 -2 16 3 13
10 -7 46 -78 44 -87 -1 -3 9 -4 23 -1 18 3 22 7 13 13 -7 4 -17 5 -21 3 -10
-6 -10 -1 -2 20 5 14 8 14 30 0 13 -9 21 -20 18 -25 -4 -7 99 -7 113 0 1 1 -3
15 -8 33 -15 53 -1 44 27 -18 18 -39 28 -53 31 -41 5 20 10 21 43 2 14 -8 53
-14 90 -15 63 0 67 1 84 30 19 34 36 31 36 -5 0 -51 -3 -52 -125 -47 -73 3
-120 1 -128 -6 -7 -6 -62 -12 -122 -14 l-109 -3 -23 40 c-46 81 -65 161 -70
311 -7 185 2 270 32 300 22 22 23 22 291 19 274 -4 480 6 511 24 21 12 273 15
273 3z m-5107 -159 c4 -54 7 -155 7 -226 0 -112 -3 -135 -24 -187 -32 -77 -62
-120 -87 -120 -21 0 -25 23 -9 64 5 14 8 26 6 26 -8 0 -76 -122 -76 -136 0 -8
-5 -14 -10 -14 -6 0 -9 -4 -8 -9 2 -5 -10 -21 -27 -37 -28 -27 -36 -29 -105
-29 -57 0 -86 -5 -122 -22 -26 -13 -53 -23 -58 -23 -6 0 -9 -4 -6 -9 3 -5 -11
-16 -33 -24 -21 -9 -57 -37 -80 -63 -48 -55 -53 -49 -11 16 46 72 133 135 290
209 13 6 65 76 89 119 4 7 29 15 54 17 49 3 107 37 127 75 6 12 10 94 10 204
-1 168 0 188 20 225 34 67 46 54 53 -56z m5202 -3 c96 -28 155 -48 268 -92 35
-14 55 -43 61 -91 3 -20 10 -45 16 -56 12 -24 13 -121 1 -121 -5 0 -11 5 -13
10 -2 6 -37 13 -78 17 -41 3 -80 10 -86 14 -6 5 -56 12 -111 15 -96 7 -101 8
-106 30 -4 25 26 53 60 55 10 1 -2 6 -27 13 -42 11 -45 14 -60 66 -9 30 -29
78 -43 107 -32 61 -33 76 -9 70 9 -3 67 -20 127 -37z m-5310 13 c13 -35 25
-179 19 -234 -6 -54 -7 -56 -42 -65 -25 -6 -43 -20 -57 -41 -13 -22 -28 -32
-45 -33 -30 -1 -64 -25 -56 -39 9 -14 -10 -48 -35 -61 -17 -10 -21 -7 -34 27
-8 21 -22 51 -30 67 -9 16 -18 61 -21 100 l-6 71 51 39 c56 42 118 76 138 76
9 0 13 -19 13 -64 0 -75 -9 -103 -49 -154 -32 -42 -45 -72 -31 -72 6 0 10 7
10 17 0 9 18 39 40 67 34 45 41 64 58 156 11 58 24 117 31 133 12 31 35 36 46
10z m740 -136 c6 -98 5 -106 -10 -101 -15 6 -15 4 -5 -13 17 -27 5 -74 -16
-66 -14 5 -15 3 -5 -15 16 -29 14 -34 -8 -22 -31 16 -70 12 -83 -10 -7 -11
-16 -20 -20 -20 -15 0 -8 24 15 48 l22 25 -32 -17 c-18 -9 -38 -16 -46 -16 -7
0 -18 -17 -24 -37 l-10 -38 -2 42 c-1 31 6 50 25 75 25 32 25 32 -9 -3 -26
-28 -38 -34 -47 -25 -8 8 -9 4 0 -18 6 -16 9 -31 6 -33 -2 -3 -7 4 -10 14 -3
10 -16 19 -28 20 -11 1 -25 8 -29 15 -6 9 -15 5 -34 -16 -30 -33 -44 -28 -27
9 7 14 12 30 12 34 0 11 -79 -4 -93 -18 -7 -7 0 -7 21 1 25 10 34 10 44 0 9
-9 6 -12 -16 -12 -15 0 -36 -5 -47 -10 -13 -8 -19 -7 -19 0 0 6 -5 8 -10 5 -6
-4 -7 -11 -4 -17 4 -7 2 -8 -4 -4 -6 4 -26 0 -45 -7 -31 -13 -35 -13 -45 4
-15 23 -16 42 -2 34 16 -10 12 6 -6 26 -15 17 -14 18 10 24 14 3 38 8 53 11
16 3 56 35 94 74 79 81 100 90 139 61 16 -11 49 -26 75 -32 62 -16 95 1 161
81 27 33 49 58 51 57 1 -1 5 -51 8 -110z m3345 -54 c0 -81 17 -175 44 -253 9
-25 11 -46 6 -48 -14 -5 -131 -99 -168 -134 -17 -18 -53 -63 -77 -100 -25 -37
-58 -76 -73 -86 -15 -11 -76 -38 -137 -61 -80 -30 -116 -49 -132 -70 -13 -16
-54 -46 -91 -67 -37 -21 -91 -61 -121 -91 -30 -29 -56 -51 -57 -50 -11 10 20
149 43 199 34 71 58 99 160 180 86 69 117 118 138 222 9 44 28 102 41 128 41
82 158 178 287 238 34 16 76 37 92 49 17 11 33 20 38 20 4 1 7 -34 7 -76z
m-2572 -88 c76 -32 121 -102 122 -190 1 -27 7 -68 15 -90 18 -49 18 -48 3 -39
-7 4 -8 3 -4 -5 4 -6 12 -9 17 -6 9 6 13 -7 9 -39 -1 -13 2 -16 12 -10 9 6 9
3 -2 -10 -12 -16 -12 -20 9 -36 15 -11 21 -22 16 -30 -5 -9 -4 -11 3 -6 7 4
12 2 12 -3 0 -6 16 -28 35 -49 19 -22 31 -43 27 -47 -4 -5 0 -6 10 -2 10 3 23
-3 35 -16 18 -21 18 -21 -2 -7 -18 14 -19 14 -6 -2 7 -10 17 -16 21 -13 10 6
66 -63 78 -96 13 -34 26 -189 16 -189 -5 0 -50 41 -99 92 -66 68 -118 110
-193 156 -56 34 -114 67 -128 72 -51 20 -85 52 -113 108 -62 123 -146 246
-161 237 -5 -3 -22 9 -38 26 -27 29 -28 35 -21 76 13 67 26 79 124 114 62 23
153 24 203 4z m5171 -149 c8 -9 8 -16 2 -20 -5 -4 -12 2 -14 11 -3 10 -5 -73
-6 -184 -1 -125 -5 -204 -11 -208 -6 -4 -8 -11 -4 -16 10 -17 14 -163 5 -194
-5 -16 -10 -23 -10 -14 -1 9 -7 16 -15 16 -10 0 -13 -8 -9 -26 4 -25 4 -25
-11 -6 -8 11 -12 23 -10 27 3 5 0 8 -6 8 -14 0 -56 51 -52 63 1 5 -2 6 -7 3
-5 -3 -15 2 -22 11 -12 14 -12 16 0 8 11 -6 13 -4 8 8 -9 23 22 23 38 0 10
-13 11 -11 7 16 -4 29 -22 55 -22 32 0 -6 -13 1 -30 15 -16 15 -27 31 -23 37
3 6 2 7 -3 4 -26 -16 -32 15 -37 180 l-6 171 42 18 c33 13 140 45 178 53 4 0
12 -5 18 -13z m-1056 -105 c-38 -74 -99 -110 -188 -111 -84 0 -314 37 -342 55
-12 8 -36 15 -52 15 -37 0 -48 15 -18 25 71 21 88 23 76 9 -24 -29 12 -14 40
17 21 22 31 27 36 18 6 -8 4 -10 -5 -4 -10 6 -12 4 -7 -8 3 -8 -1 -21 -9 -27
-18 -15 -19 -37 -1 -23 7 6 48 7 112 1 113 -10 245 -4 276 13 16 8 20 8 14 -1
-6 -9 -3 -9 12 -1 25 13 46 44 64 96 13 39 14 40 17 11 2 -18 -7 -51 -25 -85z
m-4676 59 c30 -24 52 -25 78 -6 17 12 22 12 44 -5 28 -23 49 -24 70 -5 14 13
20 12 49 -5 44 -28 144 -155 193 -245 27 -49 51 -80 70 -90 17 -8 45 -38 63
-67 40 -61 83 -111 111 -125 l20 -11 -20 -6 c-87 -29 -137 -74 -133 -119 3
-27 8 -31 34 -34 18 -2 49 4 69 12 78 33 96 9 50 -64 -14 -22 -25 -43 -25 -47
0 -22 -124 -223 -150 -243 -8 -6 -70 -158 -70 -171 0 -5 6 -9 14 -9 7 0 16 -9
19 -20 3 -11 1 -18 -4 -14 -5 3 -9 1 -9 -5 0 -5 5 -11 10 -13 9 -3 -10 -62
-43 -135 -5 -12 -7 -29 -3 -38 3 -9 2 -13 -4 -10 -10 6 -14 -7 -11 -32 1 -7
-5 -13 -14 -13 -8 0 -15 -4 -15 -10 0 -5 -16 -27 -35 -49 -41 -45 -112 -76
-160 -68 -43 7 -72 -13 -85 -61 -16 -58 -34 -74 -92 -83 -29 -5 -58 -15 -64
-24 -18 -25 -24 -17 -24 33 0 64 25 157 57 211 20 35 23 45 12 52 -18 12 -95
2 -136 -18 -33 -15 -128 -111 -161 -161 -9 -15 -27 -37 -40 -51 -12 -13 -37
-50 -54 -80 -17 -31 -41 -65 -53 -76 -12 -11 -41 -49 -63 -84 -23 -35 -43 -57
-45 -50 -3 8 -14 88 -26 179 -41 309 -77 460 -128 549 -14 24 -71 92 -126 150
-120 128 -137 147 -137 155 0 4 11 -1 25 -10 36 -23 42 -11 9 15 -16 12 -29
29 -30 37 -1 9 -6 19 -10 22 -4 4 -4 -1 -1 -11 5 -12 3 -17 -5 -15 -6 2 -13
14 -15 27 -2 12 -16 34 -33 49 l-30 28 26 49 c35 66 38 69 64 55 38 -20 35 -1
-6 35 -21 19 -36 34 -32 35 4 0 14 -7 22 -16 15 -14 16 -14 16 0 0 9 8 16 20
16 11 0 20 5 20 10 0 6 5 10 11 10 5 0 27 11 47 25 20 14 41 25 47 25 5 0 2
-5 -7 -11 -24 -13 -23 -29 1 -29 14 0 24 -13 35 -48 12 -34 22 -48 36 -49 15
-1 20 7 26 43 3 24 6 65 7 91 0 27 4 55 8 64 13 26 -2 30 -22 6 -18 -22 -18
-21 -5 23 16 58 45 112 46 87 0 -10 5 -15 10 -12 6 4 8 23 5 43 -4 26 -3 31 3
17 8 -18 10 -17 16 10 9 40 49 90 64 81 8 -5 12 -42 12 -109 0 -57 7 -131 16
-167 8 -36 19 -99 24 -140 5 -41 16 -95 24 -120 l15 -45 -2 69 -3 68 21 -26
c11 -14 23 -26 26 -26 3 0 -5 33 -19 73 -14 44 -25 104 -28 157 l-4 85 21 -75
c11 -41 42 -131 67 -200 44 -117 49 -125 80 -134 18 -5 35 -7 37 -4 3 3 -13
50 -35 104 -39 99 -70 220 -70 272 0 19 9 7 29 -43 37 -94 85 -219 86 -225 0
-3 8 -26 18 -51 18 -47 95 -129 122 -129 7 0 20 -9 28 -20 7 -10 26 -24 43
-30 26 -11 188 -49 206 -50 4 0 -1 16 -12 35 -18 32 -18 35 -2 35 9 0 33 -4
51 -10 42 -12 48 -8 26 17 -74 80 -183 282 -209 389 -25 96 -36 218 -36 380 0
243 8 270 67 224z m3345 -94 c51 3 109 10 128 15 67 17 90 12 105 -23 8 -18
14 -29 15 -24 0 5 9 1 20 -9 15 -14 17 -22 9 -37 -6 -11 -8 -22 -6 -25 8 -7
-27 -41 -36 -36 -12 7 -57 -25 -57 -40 0 -8 3 -8 9 2 5 8 11 9 15 3 3 -6 -8
-15 -24 -21 -17 -5 -29 -15 -28 -22 2 -6 -3 -14 -11 -17 -9 -3 -11 0 -6 8 5 9
4 11 -4 6 -6 -4 -9 -11 -6 -16 7 -11 -32 -33 -44 -26 -4 3 -29 -14 -55 -38
-35 -31 -54 -42 -71 -39 -14 3 -30 -3 -43 -17 -21 -23 -45 -20 -36 4 3 8 1 17
-5 21 -6 3 -9 0 -5 -8 3 -9 -3 -17 -18 -21 -13 -3 -61 -16 -108 -28 -47 -12
-90 -27 -95 -35 -8 -11 -45 -13 -172 -11 l-161 3 85 70 c47 39 104 82 126 96
23 14 57 48 74 75 18 27 41 58 51 69 31 35 176 162 192 167 9 3 27 -7 42 -24
l28 -29 92 7z m-4982 -12 c-160 -55 -345 -172 -426 -272 -39 -48 -59 -93 -35
-77 5 3 12 1 15 -4 7 -10 -20 -9 -30 2 -7 6 -58 -68 -53 -75 1 -2 -3 -14 -10
-26 -23 -42 -24 -15 -2 50 41 122 167 256 313 333 87 46 222 93 268 94 29 0
22 -4 -40 -25z m6645 -34 c44 -12 114 -39 155 -60 80 -40 218 -139 260 -185
l25 -28 -34 7 c-21 4 -58 27 -96 61 -35 30 -68 55 -74 55 -6 0 -11 4 -11 9 0
13 -90 64 -98 56 -8 -8 26 -35 45 -35 7 0 13 -5 13 -11 0 -6 7 -8 16 -5 14 5
15 4 4 -9 -11 -13 -10 -14 2 -10 9 4 22 -1 31 -9 9 -9 20 -16 25 -16 16 0 44
-38 36 -51 -4 -8 -3 -10 4 -5 7 4 20 2 29 -4 14 -9 -6 -10 -80 -6 -66 3 -104
9 -115 19 -10 8 -27 18 -40 21 -12 4 -27 16 -32 27 -16 28 -64 25 -77 -4 -7
-15 -8 -29 -2 -38 11 -18 11 -29 0 -29 -5 0 -14 14 -21 30 -8 18 -20 30 -31
30 -11 0 -19 7 -19 15 0 30 -31 75 -63 92 -31 16 -32 17 -8 22 38 10 208 -6
240 -22 26 -13 30 -13 35 0 4 10 -13 23 -59 43 -102 46 -141 53 -277 54 -71 1
-128 4 -128 8 0 23 240 8 345 -22z m-998 -27 c-3 -32 -13 -86 -22 -121 -16
-63 -17 -144 0 -94 4 12 12 22 17 22 6 0 7 7 4 16 -6 15 -4 15 10 3 10 -8 12
-15 5 -17 -6 -2 -11 -11 -11 -19 0 -14 2 -14 18 0 24 22 38 22 21 0 -7 -10 -9
-15 -5 -11 5 4 15 3 23 -3 20 -17 16 -3 -18 66 -17 35 -29 71 -27 80 1 10 31
-39 66 -111 35 -71 70 -141 78 -156 8 -14 14 -33 14 -42 0 -9 5 -16 11 -16 6
0 8 -8 4 -19 -3 -11 0 -24 7 -30 69 -56 158 -137 158 -142 0 -4 -8 -10 -17
-12 -10 -3 27 -5 82 -5 64 0 91 3 75 8 -14 4 -41 8 -61 9 -28 1 -50 12 -93 48
-31 26 -52 49 -46 51 5 2 8 7 5 12 -3 4 5 6 17 3 17 -3 19 -2 9 5 -19 14 4 27
49 27 31 0 37 -4 51 -40 l17 -40 83 -8 c46 -5 88 -12 93 -17 5 -5 9 -23 8 -40
-1 -26 4 -32 29 -37 16 -3 28 -11 27 -17 -1 -6 3 -32 11 -57 7 -25 11 -59 9
-75 -3 -27 -7 -30 -83 -47 -44 -10 -83 -24 -87 -30 -5 -7 -6 -42 -4 -79 6 -80
3 -84 -93 -132 -70 -35 -128 -54 -250 -81 -101 -21 -313 -106 -383 -152 -132
-87 -205 -188 -229 -318 -7 -33 -12 -121 -12 -195 -1 -122 2 -143 27 -219 37
-112 39 -121 18 -114 -9 3 -27 15 -39 26 -13 11 -23 16 -23 12 0 -5 -7 0 -15
12 -19 27 -55 137 -55 168 0 14 -12 31 -35 46 -35 24 -38 31 -37 80 0 18 -13
40 -43 69 -37 36 -46 40 -63 31 -23 -12 -37 -86 -31 -164 l4 -45 -25 18 c-14
10 -34 28 -45 40 -11 13 -50 42 -87 67 -85 56 -166 144 -223 241 -51 86 -60
119 -15 51 16 -25 49 -60 72 -79 24 -19 62 -49 86 -68 l43 -35 -11 29 c-14 37
-41 62 -60 56 -8 -3 -12 -1 -8 3 4 4 -9 22 -27 41 -19 19 -29 34 -22 34 8 0 8
3 -1 9 -8 4 -19 18 -25 29 -7 11 -25 42 -40 69 -16 26 -30 55 -32 63 -2 8 -8
27 -14 42 -12 32 -17 120 -8 135 4 6 1 13 -5 16 -10 4 -10 7 -1 18 11 10 18 8
43 -16 21 -20 30 -24 30 -13 0 19 -23 44 -80 88 -25 19 -56 45 -70 57 -13 12
-25 21 -27 19 -9 -8 78 -321 111 -401 8 -19 13 -35 10 -35 -5 0 -83 157 -106
215 -17 41 -50 114 -123 270 -30 64 -72 127 -147 220 -58 72 -113 144 -122
162 -25 50 0 51 49 2 23 -24 70 -70 102 -101 56 -54 59 -55 55 -29 -3 23 3 34
34 60 21 17 44 31 51 31 17 0 36 37 23 45 -6 4 -8 10 -5 14 2 5 -18 19 -45 32
-27 13 -49 29 -50 35 0 7 -16 15 -35 18 -19 4 -35 12 -35 18 0 7 -4 7 -13 -1
-8 -6 -17 -8 -20 -4 -4 3 -15 0 -24 -8 -17 -12 -17 -12 -2 4 18 20 97 37 85
19 -4 -7 -2 -10 7 -6 8 3 43 0 78 -6 35 -6 165 -15 289 -20 l225 -8 85 28 c47
15 97 30 113 34 15 3 27 13 27 20 0 8 25 24 57 36 31 12 61 24 67 28 18 11 61
7 60 -6 -3 -39 -5 -41 -21 -35 -13 5 -12 2 4 -14 11 -11 23 -27 26 -34 4 -10
13 -6 34 16 52 54 123 146 139 180 9 19 25 36 40 39 13 4 40 21 60 38 31 27
35 37 31 63 -4 22 1 41 15 61 18 26 19 27 15 6 -5 -19 -3 -21 9 -11 8 7 12 21
9 33 -5 18 -5 19 5 4 8 -13 8 -24 0 -37 -14 -26 -13 -36 3 -23 10 8 12 -8 13
-80 2 -100 14 -128 33 -76 7 18 17 41 22 50 5 9 12 60 15 112 5 75 10 96 22
96 12 0 13 -11 9 -57z m-5647 -38 l-23 -24 41 3 c23 2 43 0 44 -5 2 -4 17 -9
33 -11 25 -2 30 0 27 17 -2 14 0 16 6 7 5 -7 15 -12 23 -10 9 2 13 -4 11 -17
-5 -36 -12 -46 -23 -39 -7 4 -9 3 -6 -4 4 -5 -4 -33 -18 -60 -14 -27 -25 -58
-25 -67 0 -14 -5 -16 -27 -9 -16 5 -65 9 -110 9 -76 0 -84 -2 -120 -31 -38
-32 -41 -42 -27 -96 5 -22 0 -33 -24 -58 -36 -35 -69 -42 -52 -10 6 10 9 23 9
27 -3 13 12 43 20 39 3 -2 7 9 7 26 1 17 5 33 10 37 5 3 10 11 11 18 6 31 84
135 152 205 42 43 78 78 80 78 3 0 -6 -11 -19 -25z m791 -23 c-15 -26 -34 -65
-41 -86 -7 -21 -22 -53 -34 -70 -23 -36 -93 -93 -108 -88 -5 1 -7 -2 -4 -7 4
-5 2 -12 -3 -15 -15 -10 -20 47 -6 75 22 41 119 139 138 139 9 0 17 7 17 16 0
8 4 13 9 9 8 -4 28 34 22 43 -3 4 24 31 31 32 4 0 -5 -22 -21 -48z m5413 17
c-5 -8 -1 -8 14 0 29 15 37 14 22 -4 -11 -13 -10 -14 6 -9 10 4 25 11 31 17 9
6 16 1 24 -17 7 -14 16 -26 20 -26 8 0 24 -40 21 -52 -1 -5 3 -8 8 -8 6 0 8
-10 4 -24 -4 -17 0 -30 15 -45 23 -23 20 -25 -67 -36 -43 -6 -51 -4 -46 8 3 8
-2 22 -11 31 -21 20 -50 13 -87 -21 -26 -25 -26 -25 -33 -4 -3 12 -11 18 -17
15 -7 -4 -8 -2 -4 5 4 6 2 18 -4 26 -6 8 -9 18 -7 23 3 4 2 14 -3 22 -19 31
19 69 85 83 17 4 16 5 -5 7 l-25 2 25 8 c36 12 42 11 34 -1z m-6390 -91 c-3
-4 -13 -8 -22 -9 -9 0 -12 -3 -6 -5 7 -3 -6 -31 -32 -71 -52 -80 -117 -203
-134 -257 l-12 -38 -75 4 c-41 3 -78 9 -84 15 -6 6 1 8 20 5 28 -4 29 -3 24
31 -3 27 1 41 16 56 11 11 18 27 15 36 -4 8 -2 15 4 15 5 0 20 19 32 42 12 24
31 49 42 56 11 8 17 20 14 27 -2 7 2 16 10 19 9 3 12 1 9 -4 -3 -6 -1 -10 4
-10 6 0 11 3 11 8 1 9 78 66 93 68 28 2 31 5 17 15 -11 8 -7 9 17 4 29 -6 32
-4 27 12 -5 14 -4 15 4 3 6 -8 8 -18 6 -22z m6920 -97 c84 -166 191 -439 265
-676 65 -208 69 -245 31 -245 -14 0 -18 9 -18 53 0 116 -240 763 -336 907 -13
19 -22 38 -19 43 13 23 38 -2 77 -82z m-115 -14 c14 -40 20 -74 16 -90 -4 -16
2 -52 16 -94 12 -37 23 -77 25 -88 1 -11 9 -37 18 -57 23 -53 20 -110 -9 -178
-14 -33 -25 -75 -25 -95 0 -47 -22 -46 -45 4 -20 44 -14 91 16 130 42 53 18
132 -59 198 -75 63 -92 84 -89 107 3 25 42 52 53 35 5 -8 3 -10 -7 -4 -11 7
-12 6 -3 -6 6 -8 14 -26 17 -40 4 -15 28 -43 53 -64 78 -64 103 -158 69 -255
-19 -54 -19 -63 1 -27 38 69 31 202 -11 237 -21 18 -19 35 3 19 16 -13 16 -13
0 6 -24 29 -108 249 -108 283 0 33 7 42 30 42 11 0 23 -20 39 -63z m-665 21
c66 -51 152 -145 152 -166 0 -11 -4 -18 -9 -15 -5 3 -13 -1 -18 -8 -7 -11 -9
-11 -9 -1 0 7 -4 10 -10 7 -5 -3 -10 -1 -10 5 0 6 -4 9 -9 5 -13 -7 -73 47
-91 82 -8 15 -22 39 -31 53 -24 36 -33 70 -19 70 7 0 31 -14 54 -32z m822 7
c8 -13 35 -73 59 -132 23 -59 74 -183 113 -274 69 -164 134 -357 147 -434 4
-28 1 -46 -9 -60 -15 -20 -15 -19 -14 5 4 71 -170 558 -287 808 -37 78 -49
112 -40 112 8 0 22 -11 31 -25z m-3386 -12 c50 -4 91 -13 123 -29 26 -14 47
-26 47 -28 0 -1 -31 -3 -69 -4 -62 -1 -69 1 -64 16 6 14 4 15 -9 5 -8 -7 -19
-9 -23 -5 -5 4 -5 2 -2 -4 8 -14 -109 -27 -163 -18 -19 3 -63 5 -98 6 -34 0
-65 4 -68 9 -3 5 -1 9 5 9 5 0 23 11 40 26 26 22 39 25 91 23 33 -1 63 0 66 4
3 3 16 3 27 0 12 -2 56 -7 97 -10z m-4175 -193 c-5 -20 -3 -22 5 -10 9 11 10
7 5 -20 -7 -35 -28 -60 -51 -60 -7 0 -16 -10 -19 -21 -6 -17 -9 -19 -16 -8 -9
14 -10 12 -12 -26 -1 -11 -6 -21 -10 -22 -5 -1 -15 -10 -23 -20 -7 -10 -3 11
10 47 31 84 62 191 77 260 l12 55 14 -75 c7 -41 11 -86 8 -100z m846 142 c17
-15 19 -21 9 -27 -9 -5 -11 -4 -6 3 7 12 -40 29 -51 18 -4 -3 3 -6 15 -6 12 0
22 -2 22 -5 0 -2 -13 -37 -29 -77 -15 -40 -31 -85 -35 -100 -7 -32 -21 -36
-35 -9 -11 20 4 142 20 174 6 11 6 17 0 17 -13 0 -22 -16 -32 -54 -8 -30 -8
-29 -5 6 5 41 -13 64 -40 54 -16 -6 -15 -8 1 -20 15 -11 18 -25 17 -67 -3 -67
-19 -119 -37 -119 -8 0 -16 12 -18 28 l-4 27 -2 -30 c-1 -16 -6 -37 -12 -45
-8 -11 -9 -3 -5 32 3 27 -1 70 -9 103 -8 31 -15 58 -15 60 0 2 19 15 43 29 54
33 171 37 208 8z m698 -94 c27 -20 35 -56 17 -73 -40 -37 -116 -45 -146 -15
-25 25 -26 40 -2 40 13 0 14 2 3 9 -10 6 -2 16 30 39 46 31 58 31 98 0z m5685
-20 c20 -28 20 -75 1 -121 -18 -43 -20 -119 -4 -150 6 -12 23 -34 37 -49 30
-33 16 -38 -17 -7 -31 29 -51 79 -52 131 -1 41 -1 42 -11 15 -17 -47 7 -112
55 -150 95 -76 117 -101 119 -137 4 -48 -23 -52 -50 -7 -12 18 -44 48 -72 66
-94 61 -128 159 -91 269 12 34 21 72 21 86 0 37 18 76 34 76 8 0 22 -10 30
-22z m-5984 -29 c67 -30 115 -66 143 -108 24 -37 24 -37 6 -73 -31 -60 -111
-124 -200 -158 -87 -33 -104 -33 -139 5 -27 28 -23 31 60 38 120 11 240 85
240 148 0 22 -9 35 -41 59 -49 35 -138 70 -179 70 -35 0 -47 15 -29 36 16 20
72 13 139 -17z m2340 11 c27 0 42 -6 49 -17 9 -16 12 -16 21 -3 7 10 12 12 18
4 5 -8 129 -12 422 -12 462 -2 586 -7 594 -28 5 -12 0 -53 -6 -59 -2 -1 -116
-6 -254 -10 -137 -4 -265 -10 -284 -14 -18 -3 -67 -4 -109 0 -42 3 -182 8
-311 10 l-235 4 3 -23 c1 -15 -2 -22 -10 -20 -9 3 -13 26 -13 69 l0 64 33 3
c31 3 35 9 33 42 0 10 1 11 5 3 3 -7 23 -13 44 -13z m3465 -34 c22 3 52 7 68
10 24 5 27 3 27 -20 0 -33 -20 -42 -110 -49 -99 -8 -152 2 -156 28 -7 38 1 42
68 33 34 -4 81 -5 103 -2z m254 -43 c23 -16 23 -17 5 -24 -17 -6 -17 -8 6 -17
14 -5 23 -13 20 -18 -3 -5 5 -10 18 -12 29 -4 44 -34 40 -80 -2 -31 -9 -40
-38 -54 -29 -15 -31 -18 -12 -18 26 0 61 32 63 58 2 26 2 25 -5 57 -5 20 -4
27 3 20 17 -18 22 -79 8 -105 -16 -31 -72 -51 -107 -38 -53 20 -70 47 -70 109
0 53 2 60 28 73 17 10 21 15 11 16 -12 0 -15 7 -11 25 5 30 10 30 41 8z
m-6879 -66 c100 -12 102 -13 85 -31 -16 -15 -28 -17 -79 -12 -34 3 -85 13
-114 20 -53 14 -54 14 -36 -5 9 -10 28 -19 41 -19 33 0 19 -20 -15 -21 l-27
-1 25 -7 c23 -6 22 -8 -20 -34 -25 -15 -54 -33 -64 -42 -19 -15 -19 -15 -1
-29 17 -12 18 -15 3 -30 -22 -21 -35 -20 -43 4 -3 11 -11 20 -16 20 -5 0 -9
14 -9 30 0 25 6 33 33 46 27 13 33 21 29 39 -2 14 -13 26 -28 29 -27 7 -29 17
-13 49 18 33 26 35 88 21 32 -8 104 -20 161 -27z m2954 -23 c-10 -20 -57 -77
-104 -128 -102 -108 -104 -112 -159 -243 -23 -56 -65 -139 -92 -185 -27 -46
-90 -165 -140 -266 -75 -152 -101 -194 -152 -249 -73 -77 -200 -183 -219 -182
-10 0 -10 2 0 6 6 2 12 10 12 17 0 16 45 66 59 66 5 0 18 14 28 30 9 17 21 30
25 30 4 0 7 3 6 8 -4 16 14 72 23 72 6 0 7 6 4 13 -4 6 1 3 9 -8 9 -11 14 -26
11 -34 -5 -11 -2 -11 13 2 10 9 23 17 29 17 14 0 59 53 80 94 9 17 35 82 59
145 24 63 62 142 85 177 35 55 107 240 96 250 -2 2 -19 -7 -37 -21 -19 -14
-36 -25 -38 -25 -2 0 7 19 20 42 13 23 103 123 200 223 98 99 178 187 178 195
0 11 3 11 12 2 9 -9 7 -20 -8 -48z m4147 -101 c24 -76 51 -123 68 -121 12 2
25 -26 58 -127 23 -71 40 -131 38 -133 -2 -2 -21 10 -43 27 -35 29 -42 43 -85
179 -48 153 -63 212 -54 212 3 0 11 -17 18 -37z m-6782 -26 c6 -8 9 -16 7 -18
-8 -8 -20 -115 -18 -159 1 -25 7 -60 13 -78 6 -18 8 -40 5 -48 -8 -21 -62 -42
-131 -49 -50 -5 -65 -3 -92 14 -18 12 -33 27 -33 34 0 15 60 127 60 113 0 -5
-9 -29 -21 -53 -12 -24 -18 -50 -15 -58 8 -22 46 -18 73 7 13 12 23 16 23 10
0 -16 51 -39 75 -34 26 5 44 22 24 22 -7 0 -27 10 -43 23 l-28 23 27 120 c15
65 29 125 31 132 5 16 29 15 43 -1z m-595 -59 c17 -34 21 -52 6 -28 -14 22
-22 6 -11 -21 5 -13 10 -20 10 -15 1 5 9 2 19 -7 15 -14 22 -14 43 -3 15 8 42
10 73 7 l49 -6 19 -68 c41 -151 203 -436 393 -692 119 -161 368 -409 578 -576
15 -12 18 -23 13 -43 -3 -14 -13 -26 -21 -26 -8 0 -15 -4 -15 -9 0 -4 -15 -11
-33 -14 -38 -6 -131 15 -120 27 4 5 -1 4 -13 -2 -15 -8 -24 -8 -32 0 -9 9 -12
8 -12 -5 0 -9 -7 -17 -16 -17 -9 0 -12 5 -8 12 5 7 2 9 -8 6 -36 -14 -293 95
-517 220 -309 172 -464 319 -580 550 -95 189 -118 401 -57 521 33 65 114 153
175 193 25 15 46 28 47 28 1 0 10 -14 18 -32z m1130 -105 c-6 -110 -8 -121
-37 -165 l-32 -47 -28 27 -28 27 39 36 c38 35 40 39 47 120 4 53 13 91 23 102
8 9 17 17 19 17 2 0 1 -53 -3 -117z m6266 -19 c23 -69 40 -127 38 -129 -1 -1
-26 -10 -54 -18 l-52 -15 -12 26 c-7 15 -18 44 -26 64 -12 36 -12 39 11 63 14
13 25 35 25 48 0 37 12 87 20 87 4 0 27 -57 50 -126z m-6551 11 c47 0 98 3
114 8 24 7 27 5 27 -16 0 -20 -9 -28 -47 -43 -66 -25 -114 -23 -216 11 -94 31
-111 44 -121 91 l-7 31 82 -41 c77 -38 88 -41 168 -41z m-531 -22 c33 -25 42
-59 21 -80 -23 -23 -5 -56 43 -81 44 -23 49 -23 140 -13 60 8 102 18 119 30
23 17 28 18 60 4 48 -21 180 -34 225 -22 31 9 43 7 88 -15 29 -14 58 -26 64
-26 14 0 72 121 72 148 0 10 2 21 5 24 3 3 37 -11 75 -30 47 -23 100 -63 160
-119 157 -148 189 -247 189 -583 0 -179 -1 -193 -15 -167 -19 35 -44 35 -45 0
-5 -99 -15 -138 -51 -199 -31 -52 -114 -114 -152 -114 -10 0 -119 98 -242 218
-124 119 -232 216 -240 216 -7 -1 -11 2 -9 7 3 4 -37 53 -90 107 -108 111
-224 253 -292 357 -53 79 -169 306 -179 349 -8 32 -4 32 54 -11z m447 -48 c81
-22 113 -22 200 0 l30 8 -39 -37 c-38 -36 -41 -37 -110 -35 -69 2 -141 20
-204 53 -23 12 -32 24 -32 41 l0 25 38 -16 c20 -9 73 -27 117 -39z m6339 -97
c8 -13 19 -42 25 -65 l11 -42 68 6 67 5 27 -53 c50 -101 136 -477 153 -664 8
-94 -9 -208 -43 -275 -42 -86 -131 -168 -243 -222 -57 -28 -120 -50 -160 -57
-77 -13 -92 -14 -86 -3 3 4 -19 5 -49 4 -47 -3 -62 1 -117 32 -41 22 -88 39
-131 46 -37 6 -79 18 -92 26 -14 10 -37 14 -54 12 -16 -3 -28 -2 -25 0 2 3
-12 14 -33 24 -54 29 -68 44 -95 101 -49 102 -61 154 -47 203 20 71 6 61 -26
-18 -25 -63 -29 -84 -27 -153 4 -107 1 -110 -78 -96 -72 12 -75 15 -120 96
-112 201 -124 269 -83 454 30 134 123 255 269 351 79 51 146 77 286 110 127
30 184 51 316 120 131 68 147 69 177 12 29 -56 83 -89 111 -68 21 15 11 66
-14 66 -16 0 -41 37 -41 60 0 19 40 10 54 -12z m-4972 -420 c-92 -110 -144
-192 -167 -268 -9 -30 -19 -61 -21 -69 -4 -12 -8 -12 -21 2 -15 15 -16 23 -5
63 44 163 192 364 269 364 21 0 15 -10 -55 -92z m225 -198 c10 -15 8 -21 -9
-36 -20 -18 -21 -18 -15 -1 4 11 3 16 -3 12 -6 -3 -10 -15 -10 -25 0 -11 -13
-29 -30 -42 -16 -12 -30 -26 -30 -31 0 -5 -8 -17 -18 -26 -23 -21 -90 -111
-138 -186 -66 -102 -318 -415 -334 -415 -4 0 -11 12 -14 26 -7 28 -9 27 75
125 127 150 334 441 394 552 26 50 38 63 61 67 39 8 58 2 71 -20z m-499 -146
c22 -15 22 -15 3 -52 -22 -44 -64 -172 -86 -262 -24 -97 -22 -95 -41 -79 -33
27 1 213 66 365 21 49 26 51 58 28z m488 -119 c-6 -33 -57 -159 -91 -229 -8
-16 -12 -32 -9 -37 7 -13 41 -11 67 2 22 12 22 12 4 -9 -11 -12 -46 -26 -89
-36 -98 -22 -112 -20 -50 9 28 13 52 27 52 31 0 3 -6 4 -14 1 -26 -10 -35 13
-20 55 17 50 91 191 116 223 28 36 41 32 34 -10z m-640 -309 c6 -16 -45 -122
-89 -183 -47 -66 -42 -103 30 -253 33 -69 71 -152 84 -185 13 -33 28 -62 32
-63 4 -2 5 -20 1 -39 -5 -28 -4 -34 6 -28 8 5 11 4 6 -3 -8 -13 -66 4 -70 22
-2 6 -11 45 -21 86 -10 43 -47 133 -86 214 -89 179 -90 203 -10 291 20 22 50
66 66 97 31 59 42 69 51 44z m2285 -129 c2 -55 3 -58 38 -74 55 -27 57 -100 2
-123 -37 -15 -64 -2 -81 40 -12 28 -11 34 9 60 16 23 21 43 21 96 0 81 9 81
11 1z m2517 46 c-2 -5 -12 -27 -22 -51 -11 -26 -26 -44 -40 -47 -53 -13 -331
-54 -334 -50 -9 8 21 95 32 96 6 0 81 13 166 29 170 30 204 34 198 23z m-5773
-158 c35 -8 87 -24 117 -34 29 -11 109 -36 178 -56 197 -57 322 -127 422 -233
55 -60 56 -61 46 -99 -6 -21 -12 -57 -15 -80 -3 -24 -9 -43 -14 -43 -5 0 -9
-54 -9 -120 0 -73 -4 -120 -10 -120 -5 0 -10 -19 -10 -41 0 -48 -19 -119 -32
-119 -4 0 -8 -7 -8 -15 0 -25 -42 -75 -62 -75 -10 0 -18 -4 -18 -10 0 -5 7
-10 16 -10 8 0 12 -4 9 -10 -4 -6 6 -10 22 -11 25 0 26 -1 8 -9 -24 -10 -541
-13 -715 -3 -69 3 -115 9 -105 13 11 4 45 6 75 4 30 -1 45 -1 33 2 -13 3 -23
12 -23 20 0 8 -9 14 -19 14 -13 0 -21 8 -23 22 -2 19 -11 24 -47 29 -36 5 -51
14 -78 45 -18 21 -33 47 -33 57 0 9 -6 17 -13 17 -8 0 -19 18 -26 40 -7 23
-18 40 -26 40 -8 0 -15 6 -15 13 0 8 -9 22 -20 32 -11 10 -20 25 -20 33 0 23
-23 82 -32 82 -4 0 -8 6 -8 13 0 8 -9 22 -20 32 -11 10 -20 28 -20 39 0 12
-14 35 -30 53 -22 23 -30 42 -30 67 0 20 -4 36 -10 36 -5 0 -10 6 -10 13 0 8
-9 22 -20 32 -25 23 -25 47 0 70 11 10 20 24 20 32 0 17 36 17 44 1 3 -7 3 -1
0 14 -5 20 -1 28 15 33 11 3 24 19 28 34 8 26 55 91 67 91 3 0 14 7 25 16 10
9 47 29 82 45 59 26 71 28 157 23 51 -2 121 -11 157 -19z m5081 -62 c8 -3 14
-15 14 -27 0 -12 16 -54 35 -95 40 -82 43 -97 15 -61 l-20 25 0 -105 c0 -96 3
-110 29 -165 35 -71 39 -54 10 40 -11 37 -18 69 -15 73 11 10 45 -84 60 -168
8 -47 18 -96 22 -109 5 -16 4 -22 -4 -17 -6 3 -16 32 -23 63 -9 39 -15 50 -19
37 -6 -17 -8 -16 -23 7 -26 39 -44 112 -62 242 -9 64 -25 142 -35 173 -15 44
-18 69 -12 117 7 59 7 60 10 19 2 -26 9 -45 18 -49z m-1084 -163 c11 0 26 -19
43 -55 14 -31 25 -61 25 -69 0 -7 3 -16 7 -20 4 -4 8 -13 8 -19 2 -36 40 -187
55 -217 11 -22 43 -160 39 -165 -3 -2 -91 -5 -197 -8 -153 -3 -192 -1 -192 10
0 10 -55 13 -267 15 l-268 3 0 265 0 265 347 0 c190 0 350 3 354 8 4 4 12 3
18 -3 5 -5 18 -10 28 -10z m144 11 c19 -18 194 -25 467 -18 l199 5 19 -32 c10
-17 19 -42 19 -56 0 -14 16 -76 35 -139 30 -98 35 -127 35 -216 l0 -102 -28 5
c-15 2 -52 -2 -82 -8 -30 -6 -71 -14 -90 -16 -19 -3 -45 -10 -57 -16 -17 -8
-26 -8 -38 2 -12 10 -16 9 -21 -4 -5 -14 -9 -14 -34 -1 -15 8 -30 11 -33 8 -4
-3 -13 0 -22 7 -10 8 -15 9 -15 1 0 -6 -11 -11 -25 -11 -14 0 -25 5 -25 10 0
6 -37 10 -90 10 -75 0 -90 -3 -90 -16 0 -41 -28 2 -55 87 -17 52 -33 99 -37
104 -3 6 -9 26 -13 45 -4 19 -13 55 -22 80 -28 86 -64 241 -58 250 3 6 13 10
21 10 8 0 14 5 14 10 0 12 13 13 26 1z m-961 -271 l0 -265 -459 -8 c-252 -5
-460 -6 -463 -3 -3 3 2 26 11 52 20 59 20 64 0 64 -23 0 -13 34 12 38 17 2 24
16 37 71 10 38 17 75 17 82 0 22 54 184 62 187 4 2 8 9 8 16 0 7 4 16 10 22 5
5 162 9 387 9 l378 0 0 -265z m2445 226 c0 -12 -64 -125 -114 -199 -53 -79
-110 -137 -122 -125 -13 13 62 163 126 253 27 39 72 73 98 74 6 1 12 -1 12 -3z
m-542 -111 c-3 -14 -2 -25 2 -25 13 0 20 -103 8 -117 -9 -11 -7 -12 8 -6 17 6
17 5 5 -10 -10 -13 -11 -20 -2 -31 6 -8 14 -31 16 -52 3 -21 12 -61 19 -90 13
-51 13 -141 0 -262 -4 -42 -9 -52 -21 -48 -8 3 -17 6 -19 6 -2 0 -5 15 -6 33
-1 27 -2 25 -7 -13 -6 -41 -7 -38 -14 40 -11 134 -5 380 9 361 7 -8 9 -22 6
-31 -3 -10 -2 -12 6 -5 8 8 8 22 -1 53 -7 23 -15 41 -18 38 -7 -7 -3 56 5 81
4 13 3 30 -2 39 -9 15 -5 64 5 64 3 0 3 -11 1 -25z"/>
<path d="M3774 7130 c-17 -17 -44 -33 -64 -36 -85 -15 -155 -82 -148 -142 7
-61 127 -69 161 -11 9 17 17 38 17 47 0 25 22 82 48 126 29 49 23 56 -14 16z"/>
<path d="M8510 10294 c0 -36 -5 -75 -11 -86 -8 -15 -8 -19 0 -14 7 5 11 -6 10
-31 -1 -34 -2 -35 -9 -13 -8 22 -3 -761 5 -870 2 -25 4 -222 4 -439 l1 -395
20 22 c28 30 64 28 89 -4 12 -15 21 -32 21 -39 0 -24 -41 -65 -65 -65 -14 0
-32 11 -44 26 l-21 27 0 -101 c0 -87 2 -101 18 -105 16 -4 16 -5 0 -6 -25 -1
-26 -76 -1 -85 9 -4 20 -1 25 6 6 9 8 7 6 -7 -2 -12 -11 -20 -23 -20 -17 0
-20 -8 -22 -47 -1 -27 2 -48 7 -48 6 0 10 -9 10 -19 0 -11 4 -22 8 -25 16 -9
31 10 28 36 -3 23 2 28 35 36 22 5 36 6 33 1 -3 -5 0 -9 5 -9 6 0 11 4 11 10
0 5 6 7 13 5 9 -4 13 143 15 713 l3 718 -31 22 c-16 13 -30 30 -30 40 1 24 24
52 44 52 15 0 16 35 16 390 l0 390 -85 0 -85 0 0 -66z"/>
<path d="M7623 9433 c-7 -2 -13 -11 -13 -19 0 -9 -5 -12 -12 -8 -7 4 -8 3 -4
-5 6 -9 11 -9 22 0 9 7 14 8 14 1 0 -6 -5 -14 -11 -17 -7 -5 -9 -58 -5 -164 3
-86 5 -171 6 -188 l0 -33 68 0 c92 0 96 4 94 87 0 37 1 83 4 101 5 32 6 32 22
14 9 -10 13 -12 8 -5 -5 7 -5 13 0 13 5 0 1 5 -8 11 -10 5 -18 19 -18 30 0 11
4 18 9 15 13 -8 42 4 35 15 -3 5 -16 6 -30 3 -15 -4 -24 -2 -24 6 0 7 -11 21
-25 32 -19 15 -24 26 -20 42 5 16 4 17 -4 7 -7 -12 -13 -12 -24 -3 -7 7 -16
10 -18 7 -3 -2 -13 11 -24 30 -19 36 -21 37 -42 28z"/>
<path d="M1130 9300 c-8 -5 -10 -10 -4 -10 6 0 9 -22 6 -60 -4 -56 -3 -60 19
-69 13 -5 27 -7 31 -4 9 5 60 -28 54 -35 -3 -3 -13 1 -22 9 -14 11 -18 11 -29
-4 -16 -23 -24 -22 -18 3 4 15 0 20 -15 20 -18 0 -20 -6 -18 -50 2 -27 6 -53
9 -57 4 -3 7 -1 7 5 0 24 19 11 22 -15 3 -27 6 -28 61 -31 l57 -3 0 37 c0 21
-7 45 -15 55 -14 15 -14 18 1 34 15 15 16 21 5 52 -10 25 -10 38 -2 46 6 6 11
17 11 25 0 10 -4 10 -22 -2 -12 -9 -29 -16 -38 -16 -26 1 -52 27 -54 54 -1 27
-19 33 -46 16z"/>
<path d="M930 9233 c0 -4 8 -15 17 -25 35 -39 -34 -79 -71 -42 -16 15 -17 11
-15 -65 2 -75 3 -81 23 -82 11 0 42 -2 68 -4 56 -3 58 1 58 128 0 62 -4 87
-12 88 -7 1 -25 3 -40 5 -16 1 -28 0 -28 -3z"/>
<path d="M7927 8882 c-17 -3 -18 -23 -15 -331 l3 -328 44 -59 c25 -32 48 -63
52 -68 4 -5 6 29 4 75 -2 46 1 113 5 149 6 40 6 68 0 74 -14 14 -13 46 1 46 7
0 10 17 8 44 -2 24 -1 42 2 40 6 -3 22 346 17 352 -6 5 -102 10 -121 6z"/>
<path d="M870 8863 c0 -15 2 -16 10 -3 8 13 10 12 10 -2 0 -10 -4 -18 -10 -18
-14 0 -13 -27 2 -36 7 -5 9 -2 5 8 -5 13 1 16 27 14 40 -4 56 -12 56 -32 0
-18 -20 -18 -47 1 -17 12 -22 12 -26 2 -9 -24 4 -66 19 -60 9 3 14 -2 14 -17
0 -16 -4 -20 -15 -16 -14 5 -16 -9 -14 -103 1 -60 -2 -114 -5 -119 -4 -6 -2
-13 4 -17 6 -4 8 -11 5 -16 -3 -5 1 -6 10 -2 13 5 14 7 3 14 -11 7 -10 11 2
19 22 14 30 12 24 -5 -4 -8 1 -17 10 -21 9 -3 16 -11 16 -16 0 -7 -5 -6 -13 0
-10 9 -19 8 -35 -3 -19 -14 -21 -23 -19 -129 1 -63 5 -112 9 -110 4 3 4 -5 0
-18 -5 -13 -6 -34 -2 -48 7 -24 8 -24 15 -5 5 11 17 31 27 44 10 13 15 28 11
35 -3 6 -3 8 2 4 4 -4 14 -3 21 3 17 14 20 365 3 385 -8 10 -8 14 0 14 15 0
15 207 0 212 -6 2 -12 16 -12 31 -2 26 -4 27 -54 27 -44 0 -53 -3 -53 -17z"/>
<path d="M7624 8767 c3 -62 6 -235 6 -385 1 -170 5 -270 10 -267 6 4 10 14 10
24 0 10 7 24 15 31 9 7 22 27 31 44 8 17 21 40 30 51 13 17 16 18 25 5 8 -12
10 -10 5 9 -3 13 -1 20 4 15 4 -5 10 -20 13 -34 2 -14 5 0 6 31 1 50 -1 57
-24 67 -14 6 -30 9 -37 7 -13 -5 -15 2 -20 80 -2 37 21 71 59 86 22 8 22 12
22 169 1 119 -3 162 -12 165 -6 2 -43 6 -80 9 l-69 5 6 -112z"/>
<path d="M1146 8861 c-4 -6 -9 -431 -6 -539 0 -7 5 -10 10 -7 6 3 10 2 10 -3
0 -17 59 -74 69 -67 6 3 11 -1 11 -9 0 -9 -4 -16 -10 -16 -5 0 2 -16 15 -36
14 -20 25 -43 25 -50 0 -7 4 -15 9 -19 6 -3 10 141 10 375 l0 380 -69 0 c-38
0 -71 -4 -74 -9z"/>
<path d="M718 8433 c-4 -24 -3 -69 2 -73 4 -3 10 -23 13 -45 5 -31 5 -35 -3
-17 -5 13 -14 21 -19 18 -5 -3 -14 1 -21 9 -15 18 -31 10 -23 -12 5 -12 2 -15
-10 -10 -10 4 -18 0 -21 -11 -6 -23 -6 -220 1 -204 5 14 33 17 33 2 0 -5 -8
-13 -17 -19 -17 -9 -17 -10 1 -17 12 -5 22 -2 28 9 5 10 16 17 23 17 23 0 18
15 -10 30 -27 15 -31 25 -13 36 6 4 17 -1 23 -10 10 -13 14 -14 18 -3 3 8 1
20 -4 28 -5 8 -8 21 -8 29 0 10 2 11 6 3 2 -7 12 -13 22 -13 15 0 16 9 9 88
-3 48 -11 101 -16 117 -5 17 -7 36 -5 43 3 6 2 12 -1 12 -3 0 -7 -3 -8 -7z"/>
<path d="M7784 8132 c-4 -9 -8 -19 -9 -22 -1 -3 -15 -35 -33 -73 -34 -75 -76
-194 -85 -244 l-6 -32 42 16 c40 15 204 24 237 13 9 -3 14 1 12 10 -1 10 4 8
16 -7 13 -15 23 -18 33 -12 10 6 10 9 2 9 -7 0 -13 9 -13 21 0 15 -5 19 -15
15 -12 -4 -14 0 -9 21 6 22 4 25 -10 20 -11 -4 -16 -1 -16 9 0 10 6 14 14 11
10 -4 13 -1 9 9 -3 7 -12 14 -20 14 -9 0 -13 6 -10 15 6 14 1 26 -39 92 -20
35 -29 40 -40 21 -4 -6 -3 -8 3 -5 6 4 14 0 17 -9 9 -24 8 -25 -13 -7 -11 9
-17 22 -14 29 3 8 -1 14 -10 14 -10 0 -16 9 -16 23 -1 48 -3 57 -11 62 -4 3
-11 -3 -16 -13z"/>
<path d="M8577 5646 c-10 -11 -15 -15 -12 -8 4 7 -1 12 -14 12 -14 0 -19 -5
-15 -15 4 -9 0 -15 -10 -15 -14 0 -16 -21 -16 -174 0 -147 2 -175 15 -180 10
-4 19 2 25 17 8 20 9 20 10 2 0 -14 3 -16 8 -8 6 9 12 7 25 -7 9 -11 22 -20
28 -20 8 0 8 5 -1 15 -18 21 -3 32 21 16 25 -15 37 -7 20 13 -9 11 -9 15 1 19
10 4 10 6 1 6 -7 1 -13 10 -13 22 0 11 4 18 9 15 5 -3 9 10 8 29 -1 26 -4 32
-13 24 -9 -7 -15 -5 -22 7 -8 15 -11 15 -36 -2 -16 -9 -39 -19 -52 -20 l-24
-3 19 37 c13 26 16 44 10 60 -5 14 -5 22 2 22 6 0 8 9 4 21 -5 16 -3 20 6 17
15 -5 18 -49 7 -113 -4 -22 -5 -33 -1 -25 3 8 13 20 22 27 28 21 8 123 -24
123 -8 0 -15 4 -15 8 0 5 10 8 22 8 15 -1 27 7 33 22 11 24 31 31 21 7 -6 -16
9 -21 19 -5 8 13 -18 51 -32 46 -6 -3 -13 1 -15 8 -2 10 -8 7 -21 -8z"/>
<path d="M4740 2790 c13 -9 13 -10 0 -11 -8 -1 -1 -5 15 -9 l30 -8 -31 -1
c-25 -1 -33 -6 -38 -27 -5 -20 -11 -24 -28 -18 -18 5 -20 3 -16 -20 4 -20 1
-26 -12 -26 -13 0 -17 6 -13 20 6 23 -20 38 -40 23 -6 -6 -28 -9 -47 -7 -19 1
-40 -2 -47 -8 -16 -13 -33 -1 -33 23 0 11 -4 17 -10 14 -5 -3 -10 -15 -10 -25
0 -17 -2 -18 -27 -5 -23 12 -28 12 -39 -3 -10 -14 -14 -14 -28 -3 -14 12 -16
9 -16 -22 0 -31 -4 -36 -28 -42 -16 -3 -29 -12 -29 -20 0 -11 4 -12 14 -4 10
9 13 8 13 -4 0 -15 31 -17 270 -19 149 -2 275 -1 280 0 6 2 10 17 10 33 0 16
5 29 10 29 12 0 13 37 1 44 -5 3 -11 -4 -14 -15 -3 -12 -10 -18 -16 -15 -6 4
-8 13 -4 21 3 9 -1 23 -8 32 -12 14 -11 15 7 9 17 -5 22 -2 26 18 3 14 1 23
-3 20 -16 -10 -79 8 -79 22 0 10 -12 14 -37 14 -28 0 -34 -3 -23 -10z"/>
<path d="M0 879 c0 -114 3 -149 14 -158 8 -7 17 -8 20 -3 3 5 15 8 28 6 13 -1
33 -3 46 -3 13 -1 33 -12 46 -26 l23 -25 -3 28 c-2 15 -1 20 2 12 4 -8 11 -17
15 -20 5 -3 22 -23 38 -45 27 -37 28 -40 14 -73 -10 -25 -11 -37 -3 -47 8 -9
8 -15 0 -20 -5 -3 -10 -11 -10 -17 0 -7 9 -3 20 8 46 46 49 47 69 23 10 -13
17 -29 14 -36 -3 -7 6 -17 20 -22 31 -12 69 -64 61 -84 -3 -9 -12 -18 -21 -21
-11 -4 -12 -10 -5 -19 5 -6 13 -23 17 -37 4 -14 22 -59 40 -100 18 -41 36 -84
40 -95 6 -18 8 -18 18 -5 9 12 32 16 99 15 49 0 88 2 88 4 0 2 -32 38 -71 80
-120 127 -298 356 -426 546 -67 99 -137 202 -157 230 l-36 50 0 -146z"/>
<path d="M8878 947 c-25 -40 -61 -101 -78 -137 -76 -153 -299 -459 -492 -676
l-19 -21 105 3 c58 1 108 -1 111 -6 6 -10 -24 -22 -36 -14 -6 3 -16 0 -24 -6
-16 -13 -21 -32 -7 -27 4 1 8 -1 10 -6 1 -4 -1 -7 -4 -6 -4 0 -11 -5 -16 -13
-8 -10 -9 -9 -5 4 3 9 0 22 -8 28 -19 16 -50 8 -50 -12 0 -9 -4 -19 -8 -22 -4
-3 -5 -3 -2 0 8 12 -16 44 -33 43 -11 0 -13 -2 -4 -6 10 -4 8 -8 -5 -18 -27
-20 -6 -34 57 -37 37 -2 60 2 70 11 10 9 15 10 18 2 7 -20 32 -12 33 12 l0 22
9 -23 c13 -31 26 -28 34 9 9 48 6 57 -9 24 l-14 -30 1 45 c1 43 22 97 111 282
18 37 35 68 40 68 4 0 7 -68 6 -151 0 -133 1 -152 17 -163 10 -7 27 -12 38 -9
20 3 20 3 1 -6 -11 -4 -24 -6 -28 -4 -5 3 -28 7 -50 9 -23 1 -34 0 -25 -4 13
-5 15 -11 8 -22 -9 -13 -10 -13 -10 0 -1 8 -6 4 -11 -9 -7 -19 -12 -22 -21
-13 -7 7 -19 12 -27 11 -12 0 -12 -2 -3 -6 10 -4 9 -8 -4 -17 -25 -19 -8 -36
34 -36 28 0 33 -3 22 -10 -10 -7 -11 -10 -2 -10 7 0 15 6 18 14 3 8 15 11 30
8 17 -3 24 0 24 12 0 9 5 16 10 16 6 0 10 -7 10 -15 0 -18 16 -20 24 -2 5 9 7
9 12 0 9 -20 24 -15 24 7 0 23 13 26 29 6 10 -11 8 -15 -6 -19 -14 -4 -13 -5
5 -6 13 0 21 -5 18 -10 -4 -5 5 -4 18 2 13 7 22 16 19 22 -3 5 0 4 8 -3 7 -6
27 -12 43 -11 17 0 25 3 19 6 -10 3 -9 9 3 20 13 13 13 17 2 24 -19 13 -56 11
-64 -3 -6 -9 -10 -5 -15 12 -6 22 -7 20 -8 -12 -1 -20 -6 -40 -13 -44 -6 -4
-8 -3 -5 3 4 6 0 16 -9 23 -12 10 -12 15 -2 21 7 5 -1 7 -19 7 -20 -1 -34 -7
-36 -17 -4 -13 -5 -13 -6 2 -1 12 -10 17 -32 17 -16 0 -28 -4 -25 -9 4 -5 -5
-4 -19 2 -27 13 -31 22 -15 32 6 3 10 0 10 -7 0 -9 3 -9 10 2 5 8 10 10 10 3
0 -7 11 -10 28 -7 15 3 32 5 37 6 15 2 18 50 4 59 -8 5 -8 45 0 155 7 92 8
151 2 157 -5 5 -7 15 -4 22 2 8 -5 35 -16 61 -15 34 -18 51 -11 58 8 8 9 6 4
-8 -5 -13 -4 -17 4 -12 7 4 17 -3 24 -18 13 -29 39 -34 62 -11 8 8 22 15 30
15 9 0 32 10 51 23 l35 22 0 198 c0 108 -1 197 -2 197 -2 -1 -24 -33 -50 -73z"/>
<path d="M6779 573 c-7 -21 -91 -117 -165 -188 -55 -53 -80 -85 -100 -132 -15
-35 -33 -63 -40 -63 -19 0 -36 37 -28 62 4 14 2 18 -5 14 -12 -8 -13 -86 -2
-126 6 -21 13 -25 45 -24 35 2 36 1 22 -15 -23 -25 -20 -37 4 -16 23 21 39 13
20 -10 -7 -9 -10 -18 -7 -21 10 -10 27 6 27 26 0 11 9 20 23 23 16 3 13 5 -11
6 -18 0 -35 7 -38 14 -8 21 51 173 81 210 15 18 72 79 128 136 67 68 94 102
80 98 -12 -3 -24 0 -26 7 -3 8 -5 8 -8 -1z"/>
</g>
</svg>
